G04 #@! TF.GenerationSoftware,KiCad,Pcbnew,(5.1.2)-2*
G04 #@! TF.CreationDate,2019-10-10T00:04:01-05:00*
G04 #@! TF.ProjectId,MillingTest,4d696c6c-696e-4675-9465-73742e6b6963,rev?*
G04 #@! TF.SameCoordinates,Original*
G04 #@! TF.FileFunction,Soldermask,Bot*
G04 #@! TF.FilePolarity,Negative*
%FSLAX46Y46*%
G04 Gerber Fmt 4.6, Leading zero omitted, Abs format (unit mm)*
G04 Created by KiCad (PCBNEW (5.1.2)-2) date 2019-10-10 00:04:01*
%MOMM*%
%LPD*%
G04 APERTURE LIST*
%ADD10C,0.100000*%
G04 APERTURE END LIST*
D10*
G36*
X193822585Y-92508802D02*
G01*
X193972410Y-92538604D01*
X194254674Y-92655521D01*
X194508705Y-92825259D01*
X194724741Y-93041295D01*
X194894479Y-93295326D01*
X195011396Y-93577590D01*
X195071000Y-93877240D01*
X195071000Y-94182760D01*
X195011396Y-94482410D01*
X194894479Y-94764674D01*
X194724741Y-95018705D01*
X194508705Y-95234741D01*
X194254674Y-95404479D01*
X193972410Y-95521396D01*
X193822585Y-95551198D01*
X193672761Y-95581000D01*
X193367239Y-95581000D01*
X193217415Y-95551198D01*
X193067590Y-95521396D01*
X192785326Y-95404479D01*
X192531295Y-95234741D01*
X192315259Y-95018705D01*
X192145521Y-94764674D01*
X192028604Y-94482410D01*
X191969000Y-94182760D01*
X191969000Y-93877240D01*
X192028604Y-93577590D01*
X192145521Y-93295326D01*
X192315259Y-93041295D01*
X192531295Y-92825259D01*
X192785326Y-92655521D01*
X193067590Y-92538604D01*
X193217415Y-92508802D01*
X193367239Y-92479000D01*
X193672761Y-92479000D01*
X193822585Y-92508802D01*
X193822585Y-92508802D01*
G37*
G36*
X168422585Y-92508802D02*
G01*
X168572410Y-92538604D01*
X168854674Y-92655521D01*
X169108705Y-92825259D01*
X169324741Y-93041295D01*
X169494479Y-93295326D01*
X169611396Y-93577590D01*
X169671000Y-93877240D01*
X169671000Y-94182760D01*
X169611396Y-94482410D01*
X169494479Y-94764674D01*
X169324741Y-95018705D01*
X169108705Y-95234741D01*
X168854674Y-95404479D01*
X168572410Y-95521396D01*
X168422585Y-95551198D01*
X168272761Y-95581000D01*
X167967239Y-95581000D01*
X167817415Y-95551198D01*
X167667590Y-95521396D01*
X167385326Y-95404479D01*
X167131295Y-95234741D01*
X166915259Y-95018705D01*
X166745521Y-94764674D01*
X166628604Y-94482410D01*
X166569000Y-94182760D01*
X166569000Y-93877240D01*
X166628604Y-93577590D01*
X166745521Y-93295326D01*
X166915259Y-93041295D01*
X167131295Y-92825259D01*
X167385326Y-92655521D01*
X167667590Y-92538604D01*
X167817415Y-92508802D01*
X167967239Y-92479000D01*
X168272761Y-92479000D01*
X168422585Y-92508802D01*
X168422585Y-92508802D01*
G37*
G36*
X174830721Y-67650174D02*
G01*
X174930995Y-67691709D01*
X174930996Y-67691710D01*
X175021242Y-67752010D01*
X175097990Y-67828758D01*
X175097991Y-67828760D01*
X175158291Y-67919005D01*
X175199826Y-68019279D01*
X175221000Y-68125730D01*
X175221000Y-68234270D01*
X175199826Y-68340721D01*
X175158291Y-68440995D01*
X175158290Y-68440996D01*
X175097990Y-68531242D01*
X175021242Y-68607990D01*
X174975812Y-68638345D01*
X174930995Y-68668291D01*
X174830721Y-68709826D01*
X174724270Y-68731000D01*
X174615730Y-68731000D01*
X174509279Y-68709826D01*
X174409005Y-68668291D01*
X174364188Y-68638345D01*
X174318758Y-68607990D01*
X174242010Y-68531242D01*
X174181710Y-68440996D01*
X174181709Y-68440995D01*
X174140174Y-68340721D01*
X174119000Y-68234270D01*
X174119000Y-68125730D01*
X174140174Y-68019279D01*
X174181709Y-67919005D01*
X174242009Y-67828760D01*
X174242010Y-67828758D01*
X174318758Y-67752010D01*
X174409004Y-67691710D01*
X174409005Y-67691709D01*
X174509279Y-67650174D01*
X174615730Y-67629000D01*
X174724270Y-67629000D01*
X174830721Y-67650174D01*
X174830721Y-67650174D01*
G37*
G36*
X174830721Y-65750174D02*
G01*
X174930995Y-65791709D01*
X174930996Y-65791710D01*
X175021242Y-65852010D01*
X175097990Y-65928758D01*
X175097991Y-65928760D01*
X175158291Y-66019005D01*
X175199826Y-66119279D01*
X175221000Y-66225730D01*
X175221000Y-66334270D01*
X175199826Y-66440721D01*
X175158291Y-66540995D01*
X175158290Y-66540996D01*
X175097990Y-66631242D01*
X175021242Y-66707990D01*
X174975812Y-66738345D01*
X174930995Y-66768291D01*
X174830721Y-66809826D01*
X174724270Y-66831000D01*
X174615730Y-66831000D01*
X174509279Y-66809826D01*
X174409005Y-66768291D01*
X174364188Y-66738345D01*
X174318758Y-66707990D01*
X174242010Y-66631242D01*
X174181710Y-66540996D01*
X174181709Y-66540995D01*
X174140174Y-66440721D01*
X174119000Y-66334270D01*
X174119000Y-66225730D01*
X174140174Y-66119279D01*
X174181709Y-66019005D01*
X174242009Y-65928760D01*
X174242010Y-65928758D01*
X174318758Y-65852010D01*
X174409004Y-65791710D01*
X174409005Y-65791709D01*
X174509279Y-65750174D01*
X174615730Y-65729000D01*
X174724270Y-65729000D01*
X174830721Y-65750174D01*
X174830721Y-65750174D01*
G37*
M02*
