G04 #@! TF.GenerationSoftware,KiCad,Pcbnew,5.1.4-e60b266~84~ubuntu19.04.1*
G04 #@! TF.CreationDate,2019-10-29T11:07:24-05:00*
G04 #@! TF.ProjectId,MillingTest,4d696c6c-696e-4675-9465-73742e6b6963,rev?*
G04 #@! TF.SameCoordinates,Original*
G04 #@! TF.FileFunction,Paste,Top*
G04 #@! TF.FilePolarity,Positive*
%FSLAX46Y46*%
G04 Gerber Fmt 4.6, Leading zero omitted, Abs format (unit mm)*
G04 Created by KiCad (PCBNEW 5.1.4-e60b266~84~ubuntu19.04.1) date 2019-10-29 11:07:24*
%MOMM*%
%LPD*%
G04 APERTURE LIST*
%ADD10C,0.100000*%
%ADD11C,0.875000*%
%ADD12R,1.000000X1.150000*%
%ADD13R,6.000000X5.500000*%
%ADD14R,0.740000X2.400000*%
%ADD15C,0.590000*%
%ADD16R,1.450000X0.450000*%
%ADD17R,0.650000X1.060000*%
G04 APERTURE END LIST*
D10*
G36*
X181365191Y-75026053D02*
G01*
X181386426Y-75029203D01*
X181407250Y-75034419D01*
X181427462Y-75041651D01*
X181446868Y-75050830D01*
X181465281Y-75061866D01*
X181482524Y-75074654D01*
X181498430Y-75089070D01*
X181512846Y-75104976D01*
X181525634Y-75122219D01*
X181536670Y-75140632D01*
X181545849Y-75160038D01*
X181553081Y-75180250D01*
X181558297Y-75201074D01*
X181561447Y-75222309D01*
X181562500Y-75243750D01*
X181562500Y-75756250D01*
X181561447Y-75777691D01*
X181558297Y-75798926D01*
X181553081Y-75819750D01*
X181545849Y-75839962D01*
X181536670Y-75859368D01*
X181525634Y-75877781D01*
X181512846Y-75895024D01*
X181498430Y-75910930D01*
X181482524Y-75925346D01*
X181465281Y-75938134D01*
X181446868Y-75949170D01*
X181427462Y-75958349D01*
X181407250Y-75965581D01*
X181386426Y-75970797D01*
X181365191Y-75973947D01*
X181343750Y-75975000D01*
X180906250Y-75975000D01*
X180884809Y-75973947D01*
X180863574Y-75970797D01*
X180842750Y-75965581D01*
X180822538Y-75958349D01*
X180803132Y-75949170D01*
X180784719Y-75938134D01*
X180767476Y-75925346D01*
X180751570Y-75910930D01*
X180737154Y-75895024D01*
X180724366Y-75877781D01*
X180713330Y-75859368D01*
X180704151Y-75839962D01*
X180696919Y-75819750D01*
X180691703Y-75798926D01*
X180688553Y-75777691D01*
X180687500Y-75756250D01*
X180687500Y-75243750D01*
X180688553Y-75222309D01*
X180691703Y-75201074D01*
X180696919Y-75180250D01*
X180704151Y-75160038D01*
X180713330Y-75140632D01*
X180724366Y-75122219D01*
X180737154Y-75104976D01*
X180751570Y-75089070D01*
X180767476Y-75074654D01*
X180784719Y-75061866D01*
X180803132Y-75050830D01*
X180822538Y-75041651D01*
X180842750Y-75034419D01*
X180863574Y-75029203D01*
X180884809Y-75026053D01*
X180906250Y-75025000D01*
X181343750Y-75025000D01*
X181365191Y-75026053D01*
X181365191Y-75026053D01*
G37*
D11*
X181125000Y-75500000D03*
D10*
G36*
X182940191Y-75026053D02*
G01*
X182961426Y-75029203D01*
X182982250Y-75034419D01*
X183002462Y-75041651D01*
X183021868Y-75050830D01*
X183040281Y-75061866D01*
X183057524Y-75074654D01*
X183073430Y-75089070D01*
X183087846Y-75104976D01*
X183100634Y-75122219D01*
X183111670Y-75140632D01*
X183120849Y-75160038D01*
X183128081Y-75180250D01*
X183133297Y-75201074D01*
X183136447Y-75222309D01*
X183137500Y-75243750D01*
X183137500Y-75756250D01*
X183136447Y-75777691D01*
X183133297Y-75798926D01*
X183128081Y-75819750D01*
X183120849Y-75839962D01*
X183111670Y-75859368D01*
X183100634Y-75877781D01*
X183087846Y-75895024D01*
X183073430Y-75910930D01*
X183057524Y-75925346D01*
X183040281Y-75938134D01*
X183021868Y-75949170D01*
X183002462Y-75958349D01*
X182982250Y-75965581D01*
X182961426Y-75970797D01*
X182940191Y-75973947D01*
X182918750Y-75975000D01*
X182481250Y-75975000D01*
X182459809Y-75973947D01*
X182438574Y-75970797D01*
X182417750Y-75965581D01*
X182397538Y-75958349D01*
X182378132Y-75949170D01*
X182359719Y-75938134D01*
X182342476Y-75925346D01*
X182326570Y-75910930D01*
X182312154Y-75895024D01*
X182299366Y-75877781D01*
X182288330Y-75859368D01*
X182279151Y-75839962D01*
X182271919Y-75819750D01*
X182266703Y-75798926D01*
X182263553Y-75777691D01*
X182262500Y-75756250D01*
X182262500Y-75243750D01*
X182263553Y-75222309D01*
X182266703Y-75201074D01*
X182271919Y-75180250D01*
X182279151Y-75160038D01*
X182288330Y-75140632D01*
X182299366Y-75122219D01*
X182312154Y-75104976D01*
X182326570Y-75089070D01*
X182342476Y-75074654D01*
X182359719Y-75061866D01*
X182378132Y-75050830D01*
X182397538Y-75041651D01*
X182417750Y-75034419D01*
X182438574Y-75029203D01*
X182459809Y-75026053D01*
X182481250Y-75025000D01*
X182918750Y-75025000D01*
X182940191Y-75026053D01*
X182940191Y-75026053D01*
G37*
D11*
X182700000Y-75500000D03*
D10*
G36*
X181352691Y-76526053D02*
G01*
X181373926Y-76529203D01*
X181394750Y-76534419D01*
X181414962Y-76541651D01*
X181434368Y-76550830D01*
X181452781Y-76561866D01*
X181470024Y-76574654D01*
X181485930Y-76589070D01*
X181500346Y-76604976D01*
X181513134Y-76622219D01*
X181524170Y-76640632D01*
X181533349Y-76660038D01*
X181540581Y-76680250D01*
X181545797Y-76701074D01*
X181548947Y-76722309D01*
X181550000Y-76743750D01*
X181550000Y-77256250D01*
X181548947Y-77277691D01*
X181545797Y-77298926D01*
X181540581Y-77319750D01*
X181533349Y-77339962D01*
X181524170Y-77359368D01*
X181513134Y-77377781D01*
X181500346Y-77395024D01*
X181485930Y-77410930D01*
X181470024Y-77425346D01*
X181452781Y-77438134D01*
X181434368Y-77449170D01*
X181414962Y-77458349D01*
X181394750Y-77465581D01*
X181373926Y-77470797D01*
X181352691Y-77473947D01*
X181331250Y-77475000D01*
X180893750Y-77475000D01*
X180872309Y-77473947D01*
X180851074Y-77470797D01*
X180830250Y-77465581D01*
X180810038Y-77458349D01*
X180790632Y-77449170D01*
X180772219Y-77438134D01*
X180754976Y-77425346D01*
X180739070Y-77410930D01*
X180724654Y-77395024D01*
X180711866Y-77377781D01*
X180700830Y-77359368D01*
X180691651Y-77339962D01*
X180684419Y-77319750D01*
X180679203Y-77298926D01*
X180676053Y-77277691D01*
X180675000Y-77256250D01*
X180675000Y-76743750D01*
X180676053Y-76722309D01*
X180679203Y-76701074D01*
X180684419Y-76680250D01*
X180691651Y-76660038D01*
X180700830Y-76640632D01*
X180711866Y-76622219D01*
X180724654Y-76604976D01*
X180739070Y-76589070D01*
X180754976Y-76574654D01*
X180772219Y-76561866D01*
X180790632Y-76550830D01*
X180810038Y-76541651D01*
X180830250Y-76534419D01*
X180851074Y-76529203D01*
X180872309Y-76526053D01*
X180893750Y-76525000D01*
X181331250Y-76525000D01*
X181352691Y-76526053D01*
X181352691Y-76526053D01*
G37*
D11*
X181112500Y-77000000D03*
D10*
G36*
X182927691Y-76526053D02*
G01*
X182948926Y-76529203D01*
X182969750Y-76534419D01*
X182989962Y-76541651D01*
X183009368Y-76550830D01*
X183027781Y-76561866D01*
X183045024Y-76574654D01*
X183060930Y-76589070D01*
X183075346Y-76604976D01*
X183088134Y-76622219D01*
X183099170Y-76640632D01*
X183108349Y-76660038D01*
X183115581Y-76680250D01*
X183120797Y-76701074D01*
X183123947Y-76722309D01*
X183125000Y-76743750D01*
X183125000Y-77256250D01*
X183123947Y-77277691D01*
X183120797Y-77298926D01*
X183115581Y-77319750D01*
X183108349Y-77339962D01*
X183099170Y-77359368D01*
X183088134Y-77377781D01*
X183075346Y-77395024D01*
X183060930Y-77410930D01*
X183045024Y-77425346D01*
X183027781Y-77438134D01*
X183009368Y-77449170D01*
X182989962Y-77458349D01*
X182969750Y-77465581D01*
X182948926Y-77470797D01*
X182927691Y-77473947D01*
X182906250Y-77475000D01*
X182468750Y-77475000D01*
X182447309Y-77473947D01*
X182426074Y-77470797D01*
X182405250Y-77465581D01*
X182385038Y-77458349D01*
X182365632Y-77449170D01*
X182347219Y-77438134D01*
X182329976Y-77425346D01*
X182314070Y-77410930D01*
X182299654Y-77395024D01*
X182286866Y-77377781D01*
X182275830Y-77359368D01*
X182266651Y-77339962D01*
X182259419Y-77319750D01*
X182254203Y-77298926D01*
X182251053Y-77277691D01*
X182250000Y-77256250D01*
X182250000Y-76743750D01*
X182251053Y-76722309D01*
X182254203Y-76701074D01*
X182259419Y-76680250D01*
X182266651Y-76660038D01*
X182275830Y-76640632D01*
X182286866Y-76622219D01*
X182299654Y-76604976D01*
X182314070Y-76589070D01*
X182329976Y-76574654D01*
X182347219Y-76561866D01*
X182365632Y-76550830D01*
X182385038Y-76541651D01*
X182405250Y-76534419D01*
X182426074Y-76529203D01*
X182447309Y-76526053D01*
X182468750Y-76525000D01*
X182906250Y-76525000D01*
X182927691Y-76526053D01*
X182927691Y-76526053D01*
G37*
D11*
X182687500Y-77000000D03*
D10*
G36*
X181365191Y-78126053D02*
G01*
X181386426Y-78129203D01*
X181407250Y-78134419D01*
X181427462Y-78141651D01*
X181446868Y-78150830D01*
X181465281Y-78161866D01*
X181482524Y-78174654D01*
X181498430Y-78189070D01*
X181512846Y-78204976D01*
X181525634Y-78222219D01*
X181536670Y-78240632D01*
X181545849Y-78260038D01*
X181553081Y-78280250D01*
X181558297Y-78301074D01*
X181561447Y-78322309D01*
X181562500Y-78343750D01*
X181562500Y-78856250D01*
X181561447Y-78877691D01*
X181558297Y-78898926D01*
X181553081Y-78919750D01*
X181545849Y-78939962D01*
X181536670Y-78959368D01*
X181525634Y-78977781D01*
X181512846Y-78995024D01*
X181498430Y-79010930D01*
X181482524Y-79025346D01*
X181465281Y-79038134D01*
X181446868Y-79049170D01*
X181427462Y-79058349D01*
X181407250Y-79065581D01*
X181386426Y-79070797D01*
X181365191Y-79073947D01*
X181343750Y-79075000D01*
X180906250Y-79075000D01*
X180884809Y-79073947D01*
X180863574Y-79070797D01*
X180842750Y-79065581D01*
X180822538Y-79058349D01*
X180803132Y-79049170D01*
X180784719Y-79038134D01*
X180767476Y-79025346D01*
X180751570Y-79010930D01*
X180737154Y-78995024D01*
X180724366Y-78977781D01*
X180713330Y-78959368D01*
X180704151Y-78939962D01*
X180696919Y-78919750D01*
X180691703Y-78898926D01*
X180688553Y-78877691D01*
X180687500Y-78856250D01*
X180687500Y-78343750D01*
X180688553Y-78322309D01*
X180691703Y-78301074D01*
X180696919Y-78280250D01*
X180704151Y-78260038D01*
X180713330Y-78240632D01*
X180724366Y-78222219D01*
X180737154Y-78204976D01*
X180751570Y-78189070D01*
X180767476Y-78174654D01*
X180784719Y-78161866D01*
X180803132Y-78150830D01*
X180822538Y-78141651D01*
X180842750Y-78134419D01*
X180863574Y-78129203D01*
X180884809Y-78126053D01*
X180906250Y-78125000D01*
X181343750Y-78125000D01*
X181365191Y-78126053D01*
X181365191Y-78126053D01*
G37*
D11*
X181125000Y-78600000D03*
D10*
G36*
X182940191Y-78126053D02*
G01*
X182961426Y-78129203D01*
X182982250Y-78134419D01*
X183002462Y-78141651D01*
X183021868Y-78150830D01*
X183040281Y-78161866D01*
X183057524Y-78174654D01*
X183073430Y-78189070D01*
X183087846Y-78204976D01*
X183100634Y-78222219D01*
X183111670Y-78240632D01*
X183120849Y-78260038D01*
X183128081Y-78280250D01*
X183133297Y-78301074D01*
X183136447Y-78322309D01*
X183137500Y-78343750D01*
X183137500Y-78856250D01*
X183136447Y-78877691D01*
X183133297Y-78898926D01*
X183128081Y-78919750D01*
X183120849Y-78939962D01*
X183111670Y-78959368D01*
X183100634Y-78977781D01*
X183087846Y-78995024D01*
X183073430Y-79010930D01*
X183057524Y-79025346D01*
X183040281Y-79038134D01*
X183021868Y-79049170D01*
X183002462Y-79058349D01*
X182982250Y-79065581D01*
X182961426Y-79070797D01*
X182940191Y-79073947D01*
X182918750Y-79075000D01*
X182481250Y-79075000D01*
X182459809Y-79073947D01*
X182438574Y-79070797D01*
X182417750Y-79065581D01*
X182397538Y-79058349D01*
X182378132Y-79049170D01*
X182359719Y-79038134D01*
X182342476Y-79025346D01*
X182326570Y-79010930D01*
X182312154Y-78995024D01*
X182299366Y-78977781D01*
X182288330Y-78959368D01*
X182279151Y-78939962D01*
X182271919Y-78919750D01*
X182266703Y-78898926D01*
X182263553Y-78877691D01*
X182262500Y-78856250D01*
X182262500Y-78343750D01*
X182263553Y-78322309D01*
X182266703Y-78301074D01*
X182271919Y-78280250D01*
X182279151Y-78260038D01*
X182288330Y-78240632D01*
X182299366Y-78222219D01*
X182312154Y-78204976D01*
X182326570Y-78189070D01*
X182342476Y-78174654D01*
X182359719Y-78161866D01*
X182378132Y-78150830D01*
X182397538Y-78141651D01*
X182417750Y-78134419D01*
X182438574Y-78129203D01*
X182459809Y-78126053D01*
X182481250Y-78125000D01*
X182918750Y-78125000D01*
X182940191Y-78126053D01*
X182940191Y-78126053D01*
G37*
D11*
X182700000Y-78600000D03*
D10*
G36*
X181352691Y-79726053D02*
G01*
X181373926Y-79729203D01*
X181394750Y-79734419D01*
X181414962Y-79741651D01*
X181434368Y-79750830D01*
X181452781Y-79761866D01*
X181470024Y-79774654D01*
X181485930Y-79789070D01*
X181500346Y-79804976D01*
X181513134Y-79822219D01*
X181524170Y-79840632D01*
X181533349Y-79860038D01*
X181540581Y-79880250D01*
X181545797Y-79901074D01*
X181548947Y-79922309D01*
X181550000Y-79943750D01*
X181550000Y-80456250D01*
X181548947Y-80477691D01*
X181545797Y-80498926D01*
X181540581Y-80519750D01*
X181533349Y-80539962D01*
X181524170Y-80559368D01*
X181513134Y-80577781D01*
X181500346Y-80595024D01*
X181485930Y-80610930D01*
X181470024Y-80625346D01*
X181452781Y-80638134D01*
X181434368Y-80649170D01*
X181414962Y-80658349D01*
X181394750Y-80665581D01*
X181373926Y-80670797D01*
X181352691Y-80673947D01*
X181331250Y-80675000D01*
X180893750Y-80675000D01*
X180872309Y-80673947D01*
X180851074Y-80670797D01*
X180830250Y-80665581D01*
X180810038Y-80658349D01*
X180790632Y-80649170D01*
X180772219Y-80638134D01*
X180754976Y-80625346D01*
X180739070Y-80610930D01*
X180724654Y-80595024D01*
X180711866Y-80577781D01*
X180700830Y-80559368D01*
X180691651Y-80539962D01*
X180684419Y-80519750D01*
X180679203Y-80498926D01*
X180676053Y-80477691D01*
X180675000Y-80456250D01*
X180675000Y-79943750D01*
X180676053Y-79922309D01*
X180679203Y-79901074D01*
X180684419Y-79880250D01*
X180691651Y-79860038D01*
X180700830Y-79840632D01*
X180711866Y-79822219D01*
X180724654Y-79804976D01*
X180739070Y-79789070D01*
X180754976Y-79774654D01*
X180772219Y-79761866D01*
X180790632Y-79750830D01*
X180810038Y-79741651D01*
X180830250Y-79734419D01*
X180851074Y-79729203D01*
X180872309Y-79726053D01*
X180893750Y-79725000D01*
X181331250Y-79725000D01*
X181352691Y-79726053D01*
X181352691Y-79726053D01*
G37*
D11*
X181112500Y-80200000D03*
D10*
G36*
X182927691Y-79726053D02*
G01*
X182948926Y-79729203D01*
X182969750Y-79734419D01*
X182989962Y-79741651D01*
X183009368Y-79750830D01*
X183027781Y-79761866D01*
X183045024Y-79774654D01*
X183060930Y-79789070D01*
X183075346Y-79804976D01*
X183088134Y-79822219D01*
X183099170Y-79840632D01*
X183108349Y-79860038D01*
X183115581Y-79880250D01*
X183120797Y-79901074D01*
X183123947Y-79922309D01*
X183125000Y-79943750D01*
X183125000Y-80456250D01*
X183123947Y-80477691D01*
X183120797Y-80498926D01*
X183115581Y-80519750D01*
X183108349Y-80539962D01*
X183099170Y-80559368D01*
X183088134Y-80577781D01*
X183075346Y-80595024D01*
X183060930Y-80610930D01*
X183045024Y-80625346D01*
X183027781Y-80638134D01*
X183009368Y-80649170D01*
X182989962Y-80658349D01*
X182969750Y-80665581D01*
X182948926Y-80670797D01*
X182927691Y-80673947D01*
X182906250Y-80675000D01*
X182468750Y-80675000D01*
X182447309Y-80673947D01*
X182426074Y-80670797D01*
X182405250Y-80665581D01*
X182385038Y-80658349D01*
X182365632Y-80649170D01*
X182347219Y-80638134D01*
X182329976Y-80625346D01*
X182314070Y-80610930D01*
X182299654Y-80595024D01*
X182286866Y-80577781D01*
X182275830Y-80559368D01*
X182266651Y-80539962D01*
X182259419Y-80519750D01*
X182254203Y-80498926D01*
X182251053Y-80477691D01*
X182250000Y-80456250D01*
X182250000Y-79943750D01*
X182251053Y-79922309D01*
X182254203Y-79901074D01*
X182259419Y-79880250D01*
X182266651Y-79860038D01*
X182275830Y-79840632D01*
X182286866Y-79822219D01*
X182299654Y-79804976D01*
X182314070Y-79789070D01*
X182329976Y-79774654D01*
X182347219Y-79761866D01*
X182365632Y-79750830D01*
X182385038Y-79741651D01*
X182405250Y-79734419D01*
X182426074Y-79729203D01*
X182447309Y-79726053D01*
X182468750Y-79725000D01*
X182906250Y-79725000D01*
X182927691Y-79726053D01*
X182927691Y-79726053D01*
G37*
D11*
X182687500Y-80200000D03*
D10*
G36*
X185927691Y-75026053D02*
G01*
X185948926Y-75029203D01*
X185969750Y-75034419D01*
X185989962Y-75041651D01*
X186009368Y-75050830D01*
X186027781Y-75061866D01*
X186045024Y-75074654D01*
X186060930Y-75089070D01*
X186075346Y-75104976D01*
X186088134Y-75122219D01*
X186099170Y-75140632D01*
X186108349Y-75160038D01*
X186115581Y-75180250D01*
X186120797Y-75201074D01*
X186123947Y-75222309D01*
X186125000Y-75243750D01*
X186125000Y-75756250D01*
X186123947Y-75777691D01*
X186120797Y-75798926D01*
X186115581Y-75819750D01*
X186108349Y-75839962D01*
X186099170Y-75859368D01*
X186088134Y-75877781D01*
X186075346Y-75895024D01*
X186060930Y-75910930D01*
X186045024Y-75925346D01*
X186027781Y-75938134D01*
X186009368Y-75949170D01*
X185989962Y-75958349D01*
X185969750Y-75965581D01*
X185948926Y-75970797D01*
X185927691Y-75973947D01*
X185906250Y-75975000D01*
X185468750Y-75975000D01*
X185447309Y-75973947D01*
X185426074Y-75970797D01*
X185405250Y-75965581D01*
X185385038Y-75958349D01*
X185365632Y-75949170D01*
X185347219Y-75938134D01*
X185329976Y-75925346D01*
X185314070Y-75910930D01*
X185299654Y-75895024D01*
X185286866Y-75877781D01*
X185275830Y-75859368D01*
X185266651Y-75839962D01*
X185259419Y-75819750D01*
X185254203Y-75798926D01*
X185251053Y-75777691D01*
X185250000Y-75756250D01*
X185250000Y-75243750D01*
X185251053Y-75222309D01*
X185254203Y-75201074D01*
X185259419Y-75180250D01*
X185266651Y-75160038D01*
X185275830Y-75140632D01*
X185286866Y-75122219D01*
X185299654Y-75104976D01*
X185314070Y-75089070D01*
X185329976Y-75074654D01*
X185347219Y-75061866D01*
X185365632Y-75050830D01*
X185385038Y-75041651D01*
X185405250Y-75034419D01*
X185426074Y-75029203D01*
X185447309Y-75026053D01*
X185468750Y-75025000D01*
X185906250Y-75025000D01*
X185927691Y-75026053D01*
X185927691Y-75026053D01*
G37*
D11*
X185687500Y-75500000D03*
D10*
G36*
X184352691Y-75026053D02*
G01*
X184373926Y-75029203D01*
X184394750Y-75034419D01*
X184414962Y-75041651D01*
X184434368Y-75050830D01*
X184452781Y-75061866D01*
X184470024Y-75074654D01*
X184485930Y-75089070D01*
X184500346Y-75104976D01*
X184513134Y-75122219D01*
X184524170Y-75140632D01*
X184533349Y-75160038D01*
X184540581Y-75180250D01*
X184545797Y-75201074D01*
X184548947Y-75222309D01*
X184550000Y-75243750D01*
X184550000Y-75756250D01*
X184548947Y-75777691D01*
X184545797Y-75798926D01*
X184540581Y-75819750D01*
X184533349Y-75839962D01*
X184524170Y-75859368D01*
X184513134Y-75877781D01*
X184500346Y-75895024D01*
X184485930Y-75910930D01*
X184470024Y-75925346D01*
X184452781Y-75938134D01*
X184434368Y-75949170D01*
X184414962Y-75958349D01*
X184394750Y-75965581D01*
X184373926Y-75970797D01*
X184352691Y-75973947D01*
X184331250Y-75975000D01*
X183893750Y-75975000D01*
X183872309Y-75973947D01*
X183851074Y-75970797D01*
X183830250Y-75965581D01*
X183810038Y-75958349D01*
X183790632Y-75949170D01*
X183772219Y-75938134D01*
X183754976Y-75925346D01*
X183739070Y-75910930D01*
X183724654Y-75895024D01*
X183711866Y-75877781D01*
X183700830Y-75859368D01*
X183691651Y-75839962D01*
X183684419Y-75819750D01*
X183679203Y-75798926D01*
X183676053Y-75777691D01*
X183675000Y-75756250D01*
X183675000Y-75243750D01*
X183676053Y-75222309D01*
X183679203Y-75201074D01*
X183684419Y-75180250D01*
X183691651Y-75160038D01*
X183700830Y-75140632D01*
X183711866Y-75122219D01*
X183724654Y-75104976D01*
X183739070Y-75089070D01*
X183754976Y-75074654D01*
X183772219Y-75061866D01*
X183790632Y-75050830D01*
X183810038Y-75041651D01*
X183830250Y-75034419D01*
X183851074Y-75029203D01*
X183872309Y-75026053D01*
X183893750Y-75025000D01*
X184331250Y-75025000D01*
X184352691Y-75026053D01*
X184352691Y-75026053D01*
G37*
D11*
X184112500Y-75500000D03*
D10*
G36*
X185927691Y-76526053D02*
G01*
X185948926Y-76529203D01*
X185969750Y-76534419D01*
X185989962Y-76541651D01*
X186009368Y-76550830D01*
X186027781Y-76561866D01*
X186045024Y-76574654D01*
X186060930Y-76589070D01*
X186075346Y-76604976D01*
X186088134Y-76622219D01*
X186099170Y-76640632D01*
X186108349Y-76660038D01*
X186115581Y-76680250D01*
X186120797Y-76701074D01*
X186123947Y-76722309D01*
X186125000Y-76743750D01*
X186125000Y-77256250D01*
X186123947Y-77277691D01*
X186120797Y-77298926D01*
X186115581Y-77319750D01*
X186108349Y-77339962D01*
X186099170Y-77359368D01*
X186088134Y-77377781D01*
X186075346Y-77395024D01*
X186060930Y-77410930D01*
X186045024Y-77425346D01*
X186027781Y-77438134D01*
X186009368Y-77449170D01*
X185989962Y-77458349D01*
X185969750Y-77465581D01*
X185948926Y-77470797D01*
X185927691Y-77473947D01*
X185906250Y-77475000D01*
X185468750Y-77475000D01*
X185447309Y-77473947D01*
X185426074Y-77470797D01*
X185405250Y-77465581D01*
X185385038Y-77458349D01*
X185365632Y-77449170D01*
X185347219Y-77438134D01*
X185329976Y-77425346D01*
X185314070Y-77410930D01*
X185299654Y-77395024D01*
X185286866Y-77377781D01*
X185275830Y-77359368D01*
X185266651Y-77339962D01*
X185259419Y-77319750D01*
X185254203Y-77298926D01*
X185251053Y-77277691D01*
X185250000Y-77256250D01*
X185250000Y-76743750D01*
X185251053Y-76722309D01*
X185254203Y-76701074D01*
X185259419Y-76680250D01*
X185266651Y-76660038D01*
X185275830Y-76640632D01*
X185286866Y-76622219D01*
X185299654Y-76604976D01*
X185314070Y-76589070D01*
X185329976Y-76574654D01*
X185347219Y-76561866D01*
X185365632Y-76550830D01*
X185385038Y-76541651D01*
X185405250Y-76534419D01*
X185426074Y-76529203D01*
X185447309Y-76526053D01*
X185468750Y-76525000D01*
X185906250Y-76525000D01*
X185927691Y-76526053D01*
X185927691Y-76526053D01*
G37*
D11*
X185687500Y-77000000D03*
D10*
G36*
X184352691Y-76526053D02*
G01*
X184373926Y-76529203D01*
X184394750Y-76534419D01*
X184414962Y-76541651D01*
X184434368Y-76550830D01*
X184452781Y-76561866D01*
X184470024Y-76574654D01*
X184485930Y-76589070D01*
X184500346Y-76604976D01*
X184513134Y-76622219D01*
X184524170Y-76640632D01*
X184533349Y-76660038D01*
X184540581Y-76680250D01*
X184545797Y-76701074D01*
X184548947Y-76722309D01*
X184550000Y-76743750D01*
X184550000Y-77256250D01*
X184548947Y-77277691D01*
X184545797Y-77298926D01*
X184540581Y-77319750D01*
X184533349Y-77339962D01*
X184524170Y-77359368D01*
X184513134Y-77377781D01*
X184500346Y-77395024D01*
X184485930Y-77410930D01*
X184470024Y-77425346D01*
X184452781Y-77438134D01*
X184434368Y-77449170D01*
X184414962Y-77458349D01*
X184394750Y-77465581D01*
X184373926Y-77470797D01*
X184352691Y-77473947D01*
X184331250Y-77475000D01*
X183893750Y-77475000D01*
X183872309Y-77473947D01*
X183851074Y-77470797D01*
X183830250Y-77465581D01*
X183810038Y-77458349D01*
X183790632Y-77449170D01*
X183772219Y-77438134D01*
X183754976Y-77425346D01*
X183739070Y-77410930D01*
X183724654Y-77395024D01*
X183711866Y-77377781D01*
X183700830Y-77359368D01*
X183691651Y-77339962D01*
X183684419Y-77319750D01*
X183679203Y-77298926D01*
X183676053Y-77277691D01*
X183675000Y-77256250D01*
X183675000Y-76743750D01*
X183676053Y-76722309D01*
X183679203Y-76701074D01*
X183684419Y-76680250D01*
X183691651Y-76660038D01*
X183700830Y-76640632D01*
X183711866Y-76622219D01*
X183724654Y-76604976D01*
X183739070Y-76589070D01*
X183754976Y-76574654D01*
X183772219Y-76561866D01*
X183790632Y-76550830D01*
X183810038Y-76541651D01*
X183830250Y-76534419D01*
X183851074Y-76529203D01*
X183872309Y-76526053D01*
X183893750Y-76525000D01*
X184331250Y-76525000D01*
X184352691Y-76526053D01*
X184352691Y-76526053D01*
G37*
D11*
X184112500Y-77000000D03*
D10*
G36*
X185927691Y-78126053D02*
G01*
X185948926Y-78129203D01*
X185969750Y-78134419D01*
X185989962Y-78141651D01*
X186009368Y-78150830D01*
X186027781Y-78161866D01*
X186045024Y-78174654D01*
X186060930Y-78189070D01*
X186075346Y-78204976D01*
X186088134Y-78222219D01*
X186099170Y-78240632D01*
X186108349Y-78260038D01*
X186115581Y-78280250D01*
X186120797Y-78301074D01*
X186123947Y-78322309D01*
X186125000Y-78343750D01*
X186125000Y-78856250D01*
X186123947Y-78877691D01*
X186120797Y-78898926D01*
X186115581Y-78919750D01*
X186108349Y-78939962D01*
X186099170Y-78959368D01*
X186088134Y-78977781D01*
X186075346Y-78995024D01*
X186060930Y-79010930D01*
X186045024Y-79025346D01*
X186027781Y-79038134D01*
X186009368Y-79049170D01*
X185989962Y-79058349D01*
X185969750Y-79065581D01*
X185948926Y-79070797D01*
X185927691Y-79073947D01*
X185906250Y-79075000D01*
X185468750Y-79075000D01*
X185447309Y-79073947D01*
X185426074Y-79070797D01*
X185405250Y-79065581D01*
X185385038Y-79058349D01*
X185365632Y-79049170D01*
X185347219Y-79038134D01*
X185329976Y-79025346D01*
X185314070Y-79010930D01*
X185299654Y-78995024D01*
X185286866Y-78977781D01*
X185275830Y-78959368D01*
X185266651Y-78939962D01*
X185259419Y-78919750D01*
X185254203Y-78898926D01*
X185251053Y-78877691D01*
X185250000Y-78856250D01*
X185250000Y-78343750D01*
X185251053Y-78322309D01*
X185254203Y-78301074D01*
X185259419Y-78280250D01*
X185266651Y-78260038D01*
X185275830Y-78240632D01*
X185286866Y-78222219D01*
X185299654Y-78204976D01*
X185314070Y-78189070D01*
X185329976Y-78174654D01*
X185347219Y-78161866D01*
X185365632Y-78150830D01*
X185385038Y-78141651D01*
X185405250Y-78134419D01*
X185426074Y-78129203D01*
X185447309Y-78126053D01*
X185468750Y-78125000D01*
X185906250Y-78125000D01*
X185927691Y-78126053D01*
X185927691Y-78126053D01*
G37*
D11*
X185687500Y-78600000D03*
D10*
G36*
X184352691Y-78126053D02*
G01*
X184373926Y-78129203D01*
X184394750Y-78134419D01*
X184414962Y-78141651D01*
X184434368Y-78150830D01*
X184452781Y-78161866D01*
X184470024Y-78174654D01*
X184485930Y-78189070D01*
X184500346Y-78204976D01*
X184513134Y-78222219D01*
X184524170Y-78240632D01*
X184533349Y-78260038D01*
X184540581Y-78280250D01*
X184545797Y-78301074D01*
X184548947Y-78322309D01*
X184550000Y-78343750D01*
X184550000Y-78856250D01*
X184548947Y-78877691D01*
X184545797Y-78898926D01*
X184540581Y-78919750D01*
X184533349Y-78939962D01*
X184524170Y-78959368D01*
X184513134Y-78977781D01*
X184500346Y-78995024D01*
X184485930Y-79010930D01*
X184470024Y-79025346D01*
X184452781Y-79038134D01*
X184434368Y-79049170D01*
X184414962Y-79058349D01*
X184394750Y-79065581D01*
X184373926Y-79070797D01*
X184352691Y-79073947D01*
X184331250Y-79075000D01*
X183893750Y-79075000D01*
X183872309Y-79073947D01*
X183851074Y-79070797D01*
X183830250Y-79065581D01*
X183810038Y-79058349D01*
X183790632Y-79049170D01*
X183772219Y-79038134D01*
X183754976Y-79025346D01*
X183739070Y-79010930D01*
X183724654Y-78995024D01*
X183711866Y-78977781D01*
X183700830Y-78959368D01*
X183691651Y-78939962D01*
X183684419Y-78919750D01*
X183679203Y-78898926D01*
X183676053Y-78877691D01*
X183675000Y-78856250D01*
X183675000Y-78343750D01*
X183676053Y-78322309D01*
X183679203Y-78301074D01*
X183684419Y-78280250D01*
X183691651Y-78260038D01*
X183700830Y-78240632D01*
X183711866Y-78222219D01*
X183724654Y-78204976D01*
X183739070Y-78189070D01*
X183754976Y-78174654D01*
X183772219Y-78161866D01*
X183790632Y-78150830D01*
X183810038Y-78141651D01*
X183830250Y-78134419D01*
X183851074Y-78129203D01*
X183872309Y-78126053D01*
X183893750Y-78125000D01*
X184331250Y-78125000D01*
X184352691Y-78126053D01*
X184352691Y-78126053D01*
G37*
D11*
X184112500Y-78600000D03*
D10*
G36*
X185927691Y-79726053D02*
G01*
X185948926Y-79729203D01*
X185969750Y-79734419D01*
X185989962Y-79741651D01*
X186009368Y-79750830D01*
X186027781Y-79761866D01*
X186045024Y-79774654D01*
X186060930Y-79789070D01*
X186075346Y-79804976D01*
X186088134Y-79822219D01*
X186099170Y-79840632D01*
X186108349Y-79860038D01*
X186115581Y-79880250D01*
X186120797Y-79901074D01*
X186123947Y-79922309D01*
X186125000Y-79943750D01*
X186125000Y-80456250D01*
X186123947Y-80477691D01*
X186120797Y-80498926D01*
X186115581Y-80519750D01*
X186108349Y-80539962D01*
X186099170Y-80559368D01*
X186088134Y-80577781D01*
X186075346Y-80595024D01*
X186060930Y-80610930D01*
X186045024Y-80625346D01*
X186027781Y-80638134D01*
X186009368Y-80649170D01*
X185989962Y-80658349D01*
X185969750Y-80665581D01*
X185948926Y-80670797D01*
X185927691Y-80673947D01*
X185906250Y-80675000D01*
X185468750Y-80675000D01*
X185447309Y-80673947D01*
X185426074Y-80670797D01*
X185405250Y-80665581D01*
X185385038Y-80658349D01*
X185365632Y-80649170D01*
X185347219Y-80638134D01*
X185329976Y-80625346D01*
X185314070Y-80610930D01*
X185299654Y-80595024D01*
X185286866Y-80577781D01*
X185275830Y-80559368D01*
X185266651Y-80539962D01*
X185259419Y-80519750D01*
X185254203Y-80498926D01*
X185251053Y-80477691D01*
X185250000Y-80456250D01*
X185250000Y-79943750D01*
X185251053Y-79922309D01*
X185254203Y-79901074D01*
X185259419Y-79880250D01*
X185266651Y-79860038D01*
X185275830Y-79840632D01*
X185286866Y-79822219D01*
X185299654Y-79804976D01*
X185314070Y-79789070D01*
X185329976Y-79774654D01*
X185347219Y-79761866D01*
X185365632Y-79750830D01*
X185385038Y-79741651D01*
X185405250Y-79734419D01*
X185426074Y-79729203D01*
X185447309Y-79726053D01*
X185468750Y-79725000D01*
X185906250Y-79725000D01*
X185927691Y-79726053D01*
X185927691Y-79726053D01*
G37*
D11*
X185687500Y-80200000D03*
D10*
G36*
X184352691Y-79726053D02*
G01*
X184373926Y-79729203D01*
X184394750Y-79734419D01*
X184414962Y-79741651D01*
X184434368Y-79750830D01*
X184452781Y-79761866D01*
X184470024Y-79774654D01*
X184485930Y-79789070D01*
X184500346Y-79804976D01*
X184513134Y-79822219D01*
X184524170Y-79840632D01*
X184533349Y-79860038D01*
X184540581Y-79880250D01*
X184545797Y-79901074D01*
X184548947Y-79922309D01*
X184550000Y-79943750D01*
X184550000Y-80456250D01*
X184548947Y-80477691D01*
X184545797Y-80498926D01*
X184540581Y-80519750D01*
X184533349Y-80539962D01*
X184524170Y-80559368D01*
X184513134Y-80577781D01*
X184500346Y-80595024D01*
X184485930Y-80610930D01*
X184470024Y-80625346D01*
X184452781Y-80638134D01*
X184434368Y-80649170D01*
X184414962Y-80658349D01*
X184394750Y-80665581D01*
X184373926Y-80670797D01*
X184352691Y-80673947D01*
X184331250Y-80675000D01*
X183893750Y-80675000D01*
X183872309Y-80673947D01*
X183851074Y-80670797D01*
X183830250Y-80665581D01*
X183810038Y-80658349D01*
X183790632Y-80649170D01*
X183772219Y-80638134D01*
X183754976Y-80625346D01*
X183739070Y-80610930D01*
X183724654Y-80595024D01*
X183711866Y-80577781D01*
X183700830Y-80559368D01*
X183691651Y-80539962D01*
X183684419Y-80519750D01*
X183679203Y-80498926D01*
X183676053Y-80477691D01*
X183675000Y-80456250D01*
X183675000Y-79943750D01*
X183676053Y-79922309D01*
X183679203Y-79901074D01*
X183684419Y-79880250D01*
X183691651Y-79860038D01*
X183700830Y-79840632D01*
X183711866Y-79822219D01*
X183724654Y-79804976D01*
X183739070Y-79789070D01*
X183754976Y-79774654D01*
X183772219Y-79761866D01*
X183790632Y-79750830D01*
X183810038Y-79741651D01*
X183830250Y-79734419D01*
X183851074Y-79729203D01*
X183872309Y-79726053D01*
X183893750Y-79725000D01*
X184331250Y-79725000D01*
X184352691Y-79726053D01*
X184352691Y-79726053D01*
G37*
D11*
X184112500Y-80200000D03*
D12*
X189600000Y-67075000D03*
X189600000Y-65325000D03*
X191000000Y-65325000D03*
X191000000Y-67075000D03*
D13*
X194320000Y-96800000D03*
X163720000Y-96800000D03*
D14*
X164740000Y-75850000D03*
X164740000Y-79750000D03*
X163470000Y-75850000D03*
X163470000Y-79750000D03*
X162200000Y-75850000D03*
X162200000Y-79750000D03*
X160930000Y-75850000D03*
X160930000Y-79750000D03*
X159660000Y-75850000D03*
X159660000Y-79750000D03*
D10*
G36*
X194786958Y-68470710D02*
G01*
X194801276Y-68472834D01*
X194815317Y-68476351D01*
X194828946Y-68481228D01*
X194842031Y-68487417D01*
X194854447Y-68494858D01*
X194866073Y-68503481D01*
X194876798Y-68513202D01*
X194886519Y-68523927D01*
X194895142Y-68535553D01*
X194902583Y-68547969D01*
X194908772Y-68561054D01*
X194913649Y-68574683D01*
X194917166Y-68588724D01*
X194919290Y-68603042D01*
X194920000Y-68617500D01*
X194920000Y-68912500D01*
X194919290Y-68926958D01*
X194917166Y-68941276D01*
X194913649Y-68955317D01*
X194908772Y-68968946D01*
X194902583Y-68982031D01*
X194895142Y-68994447D01*
X194886519Y-69006073D01*
X194876798Y-69016798D01*
X194866073Y-69026519D01*
X194854447Y-69035142D01*
X194842031Y-69042583D01*
X194828946Y-69048772D01*
X194815317Y-69053649D01*
X194801276Y-69057166D01*
X194786958Y-69059290D01*
X194772500Y-69060000D01*
X194427500Y-69060000D01*
X194413042Y-69059290D01*
X194398724Y-69057166D01*
X194384683Y-69053649D01*
X194371054Y-69048772D01*
X194357969Y-69042583D01*
X194345553Y-69035142D01*
X194333927Y-69026519D01*
X194323202Y-69016798D01*
X194313481Y-69006073D01*
X194304858Y-68994447D01*
X194297417Y-68982031D01*
X194291228Y-68968946D01*
X194286351Y-68955317D01*
X194282834Y-68941276D01*
X194280710Y-68926958D01*
X194280000Y-68912500D01*
X194280000Y-68617500D01*
X194280710Y-68603042D01*
X194282834Y-68588724D01*
X194286351Y-68574683D01*
X194291228Y-68561054D01*
X194297417Y-68547969D01*
X194304858Y-68535553D01*
X194313481Y-68523927D01*
X194323202Y-68513202D01*
X194333927Y-68503481D01*
X194345553Y-68494858D01*
X194357969Y-68487417D01*
X194371054Y-68481228D01*
X194384683Y-68476351D01*
X194398724Y-68472834D01*
X194413042Y-68470710D01*
X194427500Y-68470000D01*
X194772500Y-68470000D01*
X194786958Y-68470710D01*
X194786958Y-68470710D01*
G37*
D15*
X194600000Y-68765000D03*
D10*
G36*
X194786958Y-69440710D02*
G01*
X194801276Y-69442834D01*
X194815317Y-69446351D01*
X194828946Y-69451228D01*
X194842031Y-69457417D01*
X194854447Y-69464858D01*
X194866073Y-69473481D01*
X194876798Y-69483202D01*
X194886519Y-69493927D01*
X194895142Y-69505553D01*
X194902583Y-69517969D01*
X194908772Y-69531054D01*
X194913649Y-69544683D01*
X194917166Y-69558724D01*
X194919290Y-69573042D01*
X194920000Y-69587500D01*
X194920000Y-69882500D01*
X194919290Y-69896958D01*
X194917166Y-69911276D01*
X194913649Y-69925317D01*
X194908772Y-69938946D01*
X194902583Y-69952031D01*
X194895142Y-69964447D01*
X194886519Y-69976073D01*
X194876798Y-69986798D01*
X194866073Y-69996519D01*
X194854447Y-70005142D01*
X194842031Y-70012583D01*
X194828946Y-70018772D01*
X194815317Y-70023649D01*
X194801276Y-70027166D01*
X194786958Y-70029290D01*
X194772500Y-70030000D01*
X194427500Y-70030000D01*
X194413042Y-70029290D01*
X194398724Y-70027166D01*
X194384683Y-70023649D01*
X194371054Y-70018772D01*
X194357969Y-70012583D01*
X194345553Y-70005142D01*
X194333927Y-69996519D01*
X194323202Y-69986798D01*
X194313481Y-69976073D01*
X194304858Y-69964447D01*
X194297417Y-69952031D01*
X194291228Y-69938946D01*
X194286351Y-69925317D01*
X194282834Y-69911276D01*
X194280710Y-69896958D01*
X194280000Y-69882500D01*
X194280000Y-69587500D01*
X194280710Y-69573042D01*
X194282834Y-69558724D01*
X194286351Y-69544683D01*
X194291228Y-69531054D01*
X194297417Y-69517969D01*
X194304858Y-69505553D01*
X194313481Y-69493927D01*
X194323202Y-69483202D01*
X194333927Y-69473481D01*
X194345553Y-69464858D01*
X194357969Y-69457417D01*
X194371054Y-69451228D01*
X194384683Y-69446351D01*
X194398724Y-69442834D01*
X194413042Y-69440710D01*
X194427500Y-69440000D01*
X194772500Y-69440000D01*
X194786958Y-69440710D01*
X194786958Y-69440710D01*
G37*
D15*
X194600000Y-69735000D03*
D10*
G36*
X195746958Y-67380710D02*
G01*
X195761276Y-67382834D01*
X195775317Y-67386351D01*
X195788946Y-67391228D01*
X195802031Y-67397417D01*
X195814447Y-67404858D01*
X195826073Y-67413481D01*
X195836798Y-67423202D01*
X195846519Y-67433927D01*
X195855142Y-67445553D01*
X195862583Y-67457969D01*
X195868772Y-67471054D01*
X195873649Y-67484683D01*
X195877166Y-67498724D01*
X195879290Y-67513042D01*
X195880000Y-67527500D01*
X195880000Y-67872500D01*
X195879290Y-67886958D01*
X195877166Y-67901276D01*
X195873649Y-67915317D01*
X195868772Y-67928946D01*
X195862583Y-67942031D01*
X195855142Y-67954447D01*
X195846519Y-67966073D01*
X195836798Y-67976798D01*
X195826073Y-67986519D01*
X195814447Y-67995142D01*
X195802031Y-68002583D01*
X195788946Y-68008772D01*
X195775317Y-68013649D01*
X195761276Y-68017166D01*
X195746958Y-68019290D01*
X195732500Y-68020000D01*
X195437500Y-68020000D01*
X195423042Y-68019290D01*
X195408724Y-68017166D01*
X195394683Y-68013649D01*
X195381054Y-68008772D01*
X195367969Y-68002583D01*
X195355553Y-67995142D01*
X195343927Y-67986519D01*
X195333202Y-67976798D01*
X195323481Y-67966073D01*
X195314858Y-67954447D01*
X195307417Y-67942031D01*
X195301228Y-67928946D01*
X195296351Y-67915317D01*
X195292834Y-67901276D01*
X195290710Y-67886958D01*
X195290000Y-67872500D01*
X195290000Y-67527500D01*
X195290710Y-67513042D01*
X195292834Y-67498724D01*
X195296351Y-67484683D01*
X195301228Y-67471054D01*
X195307417Y-67457969D01*
X195314858Y-67445553D01*
X195323481Y-67433927D01*
X195333202Y-67423202D01*
X195343927Y-67413481D01*
X195355553Y-67404858D01*
X195367969Y-67397417D01*
X195381054Y-67391228D01*
X195394683Y-67386351D01*
X195408724Y-67382834D01*
X195423042Y-67380710D01*
X195437500Y-67380000D01*
X195732500Y-67380000D01*
X195746958Y-67380710D01*
X195746958Y-67380710D01*
G37*
D15*
X195585000Y-67700000D03*
D10*
G36*
X194776958Y-67380710D02*
G01*
X194791276Y-67382834D01*
X194805317Y-67386351D01*
X194818946Y-67391228D01*
X194832031Y-67397417D01*
X194844447Y-67404858D01*
X194856073Y-67413481D01*
X194866798Y-67423202D01*
X194876519Y-67433927D01*
X194885142Y-67445553D01*
X194892583Y-67457969D01*
X194898772Y-67471054D01*
X194903649Y-67484683D01*
X194907166Y-67498724D01*
X194909290Y-67513042D01*
X194910000Y-67527500D01*
X194910000Y-67872500D01*
X194909290Y-67886958D01*
X194907166Y-67901276D01*
X194903649Y-67915317D01*
X194898772Y-67928946D01*
X194892583Y-67942031D01*
X194885142Y-67954447D01*
X194876519Y-67966073D01*
X194866798Y-67976798D01*
X194856073Y-67986519D01*
X194844447Y-67995142D01*
X194832031Y-68002583D01*
X194818946Y-68008772D01*
X194805317Y-68013649D01*
X194791276Y-68017166D01*
X194776958Y-68019290D01*
X194762500Y-68020000D01*
X194467500Y-68020000D01*
X194453042Y-68019290D01*
X194438724Y-68017166D01*
X194424683Y-68013649D01*
X194411054Y-68008772D01*
X194397969Y-68002583D01*
X194385553Y-67995142D01*
X194373927Y-67986519D01*
X194363202Y-67976798D01*
X194353481Y-67966073D01*
X194344858Y-67954447D01*
X194337417Y-67942031D01*
X194331228Y-67928946D01*
X194326351Y-67915317D01*
X194322834Y-67901276D01*
X194320710Y-67886958D01*
X194320000Y-67872500D01*
X194320000Y-67527500D01*
X194320710Y-67513042D01*
X194322834Y-67498724D01*
X194326351Y-67484683D01*
X194331228Y-67471054D01*
X194337417Y-67457969D01*
X194344858Y-67445553D01*
X194353481Y-67433927D01*
X194363202Y-67423202D01*
X194373927Y-67413481D01*
X194385553Y-67404858D01*
X194397969Y-67397417D01*
X194411054Y-67391228D01*
X194424683Y-67386351D01*
X194438724Y-67382834D01*
X194453042Y-67380710D01*
X194467500Y-67380000D01*
X194762500Y-67380000D01*
X194776958Y-67380710D01*
X194776958Y-67380710D01*
G37*
D15*
X194615000Y-67700000D03*
D10*
G36*
X189777691Y-75651053D02*
G01*
X189798926Y-75654203D01*
X189819750Y-75659419D01*
X189839962Y-75666651D01*
X189859368Y-75675830D01*
X189877781Y-75686866D01*
X189895024Y-75699654D01*
X189910930Y-75714070D01*
X189925346Y-75729976D01*
X189938134Y-75747219D01*
X189949170Y-75765632D01*
X189958349Y-75785038D01*
X189965581Y-75805250D01*
X189970797Y-75826074D01*
X189973947Y-75847309D01*
X189975000Y-75868750D01*
X189975000Y-76306250D01*
X189973947Y-76327691D01*
X189970797Y-76348926D01*
X189965581Y-76369750D01*
X189958349Y-76389962D01*
X189949170Y-76409368D01*
X189938134Y-76427781D01*
X189925346Y-76445024D01*
X189910930Y-76460930D01*
X189895024Y-76475346D01*
X189877781Y-76488134D01*
X189859368Y-76499170D01*
X189839962Y-76508349D01*
X189819750Y-76515581D01*
X189798926Y-76520797D01*
X189777691Y-76523947D01*
X189756250Y-76525000D01*
X189243750Y-76525000D01*
X189222309Y-76523947D01*
X189201074Y-76520797D01*
X189180250Y-76515581D01*
X189160038Y-76508349D01*
X189140632Y-76499170D01*
X189122219Y-76488134D01*
X189104976Y-76475346D01*
X189089070Y-76460930D01*
X189074654Y-76445024D01*
X189061866Y-76427781D01*
X189050830Y-76409368D01*
X189041651Y-76389962D01*
X189034419Y-76369750D01*
X189029203Y-76348926D01*
X189026053Y-76327691D01*
X189025000Y-76306250D01*
X189025000Y-75868750D01*
X189026053Y-75847309D01*
X189029203Y-75826074D01*
X189034419Y-75805250D01*
X189041651Y-75785038D01*
X189050830Y-75765632D01*
X189061866Y-75747219D01*
X189074654Y-75729976D01*
X189089070Y-75714070D01*
X189104976Y-75699654D01*
X189122219Y-75686866D01*
X189140632Y-75675830D01*
X189160038Y-75666651D01*
X189180250Y-75659419D01*
X189201074Y-75654203D01*
X189222309Y-75651053D01*
X189243750Y-75650000D01*
X189756250Y-75650000D01*
X189777691Y-75651053D01*
X189777691Y-75651053D01*
G37*
D11*
X189500000Y-76087500D03*
D10*
G36*
X189777691Y-74076053D02*
G01*
X189798926Y-74079203D01*
X189819750Y-74084419D01*
X189839962Y-74091651D01*
X189859368Y-74100830D01*
X189877781Y-74111866D01*
X189895024Y-74124654D01*
X189910930Y-74139070D01*
X189925346Y-74154976D01*
X189938134Y-74172219D01*
X189949170Y-74190632D01*
X189958349Y-74210038D01*
X189965581Y-74230250D01*
X189970797Y-74251074D01*
X189973947Y-74272309D01*
X189975000Y-74293750D01*
X189975000Y-74731250D01*
X189973947Y-74752691D01*
X189970797Y-74773926D01*
X189965581Y-74794750D01*
X189958349Y-74814962D01*
X189949170Y-74834368D01*
X189938134Y-74852781D01*
X189925346Y-74870024D01*
X189910930Y-74885930D01*
X189895024Y-74900346D01*
X189877781Y-74913134D01*
X189859368Y-74924170D01*
X189839962Y-74933349D01*
X189819750Y-74940581D01*
X189798926Y-74945797D01*
X189777691Y-74948947D01*
X189756250Y-74950000D01*
X189243750Y-74950000D01*
X189222309Y-74948947D01*
X189201074Y-74945797D01*
X189180250Y-74940581D01*
X189160038Y-74933349D01*
X189140632Y-74924170D01*
X189122219Y-74913134D01*
X189104976Y-74900346D01*
X189089070Y-74885930D01*
X189074654Y-74870024D01*
X189061866Y-74852781D01*
X189050830Y-74834368D01*
X189041651Y-74814962D01*
X189034419Y-74794750D01*
X189029203Y-74773926D01*
X189026053Y-74752691D01*
X189025000Y-74731250D01*
X189025000Y-74293750D01*
X189026053Y-74272309D01*
X189029203Y-74251074D01*
X189034419Y-74230250D01*
X189041651Y-74210038D01*
X189050830Y-74190632D01*
X189061866Y-74172219D01*
X189074654Y-74154976D01*
X189089070Y-74139070D01*
X189104976Y-74124654D01*
X189122219Y-74111866D01*
X189140632Y-74100830D01*
X189160038Y-74091651D01*
X189180250Y-74084419D01*
X189201074Y-74079203D01*
X189222309Y-74076053D01*
X189243750Y-74075000D01*
X189756250Y-74075000D01*
X189777691Y-74076053D01*
X189777691Y-74076053D01*
G37*
D11*
X189500000Y-74512500D03*
D10*
G36*
X195746958Y-70480710D02*
G01*
X195761276Y-70482834D01*
X195775317Y-70486351D01*
X195788946Y-70491228D01*
X195802031Y-70497417D01*
X195814447Y-70504858D01*
X195826073Y-70513481D01*
X195836798Y-70523202D01*
X195846519Y-70533927D01*
X195855142Y-70545553D01*
X195862583Y-70557969D01*
X195868772Y-70571054D01*
X195873649Y-70584683D01*
X195877166Y-70598724D01*
X195879290Y-70613042D01*
X195880000Y-70627500D01*
X195880000Y-70972500D01*
X195879290Y-70986958D01*
X195877166Y-71001276D01*
X195873649Y-71015317D01*
X195868772Y-71028946D01*
X195862583Y-71042031D01*
X195855142Y-71054447D01*
X195846519Y-71066073D01*
X195836798Y-71076798D01*
X195826073Y-71086519D01*
X195814447Y-71095142D01*
X195802031Y-71102583D01*
X195788946Y-71108772D01*
X195775317Y-71113649D01*
X195761276Y-71117166D01*
X195746958Y-71119290D01*
X195732500Y-71120000D01*
X195437500Y-71120000D01*
X195423042Y-71119290D01*
X195408724Y-71117166D01*
X195394683Y-71113649D01*
X195381054Y-71108772D01*
X195367969Y-71102583D01*
X195355553Y-71095142D01*
X195343927Y-71086519D01*
X195333202Y-71076798D01*
X195323481Y-71066073D01*
X195314858Y-71054447D01*
X195307417Y-71042031D01*
X195301228Y-71028946D01*
X195296351Y-71015317D01*
X195292834Y-71001276D01*
X195290710Y-70986958D01*
X195290000Y-70972500D01*
X195290000Y-70627500D01*
X195290710Y-70613042D01*
X195292834Y-70598724D01*
X195296351Y-70584683D01*
X195301228Y-70571054D01*
X195307417Y-70557969D01*
X195314858Y-70545553D01*
X195323481Y-70533927D01*
X195333202Y-70523202D01*
X195343927Y-70513481D01*
X195355553Y-70504858D01*
X195367969Y-70497417D01*
X195381054Y-70491228D01*
X195394683Y-70486351D01*
X195408724Y-70482834D01*
X195423042Y-70480710D01*
X195437500Y-70480000D01*
X195732500Y-70480000D01*
X195746958Y-70480710D01*
X195746958Y-70480710D01*
G37*
D15*
X195585000Y-70800000D03*
D10*
G36*
X194776958Y-70480710D02*
G01*
X194791276Y-70482834D01*
X194805317Y-70486351D01*
X194818946Y-70491228D01*
X194832031Y-70497417D01*
X194844447Y-70504858D01*
X194856073Y-70513481D01*
X194866798Y-70523202D01*
X194876519Y-70533927D01*
X194885142Y-70545553D01*
X194892583Y-70557969D01*
X194898772Y-70571054D01*
X194903649Y-70584683D01*
X194907166Y-70598724D01*
X194909290Y-70613042D01*
X194910000Y-70627500D01*
X194910000Y-70972500D01*
X194909290Y-70986958D01*
X194907166Y-71001276D01*
X194903649Y-71015317D01*
X194898772Y-71028946D01*
X194892583Y-71042031D01*
X194885142Y-71054447D01*
X194876519Y-71066073D01*
X194866798Y-71076798D01*
X194856073Y-71086519D01*
X194844447Y-71095142D01*
X194832031Y-71102583D01*
X194818946Y-71108772D01*
X194805317Y-71113649D01*
X194791276Y-71117166D01*
X194776958Y-71119290D01*
X194762500Y-71120000D01*
X194467500Y-71120000D01*
X194453042Y-71119290D01*
X194438724Y-71117166D01*
X194424683Y-71113649D01*
X194411054Y-71108772D01*
X194397969Y-71102583D01*
X194385553Y-71095142D01*
X194373927Y-71086519D01*
X194363202Y-71076798D01*
X194353481Y-71066073D01*
X194344858Y-71054447D01*
X194337417Y-71042031D01*
X194331228Y-71028946D01*
X194326351Y-71015317D01*
X194322834Y-71001276D01*
X194320710Y-70986958D01*
X194320000Y-70972500D01*
X194320000Y-70627500D01*
X194320710Y-70613042D01*
X194322834Y-70598724D01*
X194326351Y-70584683D01*
X194331228Y-70571054D01*
X194337417Y-70557969D01*
X194344858Y-70545553D01*
X194353481Y-70533927D01*
X194363202Y-70523202D01*
X194373927Y-70513481D01*
X194385553Y-70504858D01*
X194397969Y-70497417D01*
X194411054Y-70491228D01*
X194424683Y-70486351D01*
X194438724Y-70482834D01*
X194453042Y-70480710D01*
X194467500Y-70480000D01*
X194762500Y-70480000D01*
X194776958Y-70480710D01*
X194776958Y-70480710D01*
G37*
D15*
X194615000Y-70800000D03*
D16*
X177150000Y-72875000D03*
X177150000Y-73525000D03*
X177150000Y-74175000D03*
X177150000Y-74825000D03*
X177150000Y-75475000D03*
X177150000Y-76125000D03*
X177150000Y-76775000D03*
X177150000Y-77425000D03*
X177150000Y-78075000D03*
X177150000Y-78725000D03*
X171250000Y-78725000D03*
X171250000Y-78075000D03*
X171250000Y-77425000D03*
X171250000Y-76775000D03*
X171250000Y-76125000D03*
X171250000Y-75475000D03*
X171250000Y-74825000D03*
X171250000Y-74175000D03*
X171250000Y-73525000D03*
X171250000Y-72875000D03*
D17*
X190100000Y-72800000D03*
X191050000Y-72800000D03*
X189150000Y-72800000D03*
X189150000Y-70600000D03*
X190100000Y-70600000D03*
X191050000Y-70600000D03*
D10*
G36*
X172046958Y-79880710D02*
G01*
X172061276Y-79882834D01*
X172075317Y-79886351D01*
X172088946Y-79891228D01*
X172102031Y-79897417D01*
X172114447Y-79904858D01*
X172126073Y-79913481D01*
X172136798Y-79923202D01*
X172146519Y-79933927D01*
X172155142Y-79945553D01*
X172162583Y-79957969D01*
X172168772Y-79971054D01*
X172173649Y-79984683D01*
X172177166Y-79998724D01*
X172179290Y-80013042D01*
X172180000Y-80027500D01*
X172180000Y-80372500D01*
X172179290Y-80386958D01*
X172177166Y-80401276D01*
X172173649Y-80415317D01*
X172168772Y-80428946D01*
X172162583Y-80442031D01*
X172155142Y-80454447D01*
X172146519Y-80466073D01*
X172136798Y-80476798D01*
X172126073Y-80486519D01*
X172114447Y-80495142D01*
X172102031Y-80502583D01*
X172088946Y-80508772D01*
X172075317Y-80513649D01*
X172061276Y-80517166D01*
X172046958Y-80519290D01*
X172032500Y-80520000D01*
X171737500Y-80520000D01*
X171723042Y-80519290D01*
X171708724Y-80517166D01*
X171694683Y-80513649D01*
X171681054Y-80508772D01*
X171667969Y-80502583D01*
X171655553Y-80495142D01*
X171643927Y-80486519D01*
X171633202Y-80476798D01*
X171623481Y-80466073D01*
X171614858Y-80454447D01*
X171607417Y-80442031D01*
X171601228Y-80428946D01*
X171596351Y-80415317D01*
X171592834Y-80401276D01*
X171590710Y-80386958D01*
X171590000Y-80372500D01*
X171590000Y-80027500D01*
X171590710Y-80013042D01*
X171592834Y-79998724D01*
X171596351Y-79984683D01*
X171601228Y-79971054D01*
X171607417Y-79957969D01*
X171614858Y-79945553D01*
X171623481Y-79933927D01*
X171633202Y-79923202D01*
X171643927Y-79913481D01*
X171655553Y-79904858D01*
X171667969Y-79897417D01*
X171681054Y-79891228D01*
X171694683Y-79886351D01*
X171708724Y-79882834D01*
X171723042Y-79880710D01*
X171737500Y-79880000D01*
X172032500Y-79880000D01*
X172046958Y-79880710D01*
X172046958Y-79880710D01*
G37*
D15*
X171885000Y-80200000D03*
D10*
G36*
X171076958Y-79880710D02*
G01*
X171091276Y-79882834D01*
X171105317Y-79886351D01*
X171118946Y-79891228D01*
X171132031Y-79897417D01*
X171144447Y-79904858D01*
X171156073Y-79913481D01*
X171166798Y-79923202D01*
X171176519Y-79933927D01*
X171185142Y-79945553D01*
X171192583Y-79957969D01*
X171198772Y-79971054D01*
X171203649Y-79984683D01*
X171207166Y-79998724D01*
X171209290Y-80013042D01*
X171210000Y-80027500D01*
X171210000Y-80372500D01*
X171209290Y-80386958D01*
X171207166Y-80401276D01*
X171203649Y-80415317D01*
X171198772Y-80428946D01*
X171192583Y-80442031D01*
X171185142Y-80454447D01*
X171176519Y-80466073D01*
X171166798Y-80476798D01*
X171156073Y-80486519D01*
X171144447Y-80495142D01*
X171132031Y-80502583D01*
X171118946Y-80508772D01*
X171105317Y-80513649D01*
X171091276Y-80517166D01*
X171076958Y-80519290D01*
X171062500Y-80520000D01*
X170767500Y-80520000D01*
X170753042Y-80519290D01*
X170738724Y-80517166D01*
X170724683Y-80513649D01*
X170711054Y-80508772D01*
X170697969Y-80502583D01*
X170685553Y-80495142D01*
X170673927Y-80486519D01*
X170663202Y-80476798D01*
X170653481Y-80466073D01*
X170644858Y-80454447D01*
X170637417Y-80442031D01*
X170631228Y-80428946D01*
X170626351Y-80415317D01*
X170622834Y-80401276D01*
X170620710Y-80386958D01*
X170620000Y-80372500D01*
X170620000Y-80027500D01*
X170620710Y-80013042D01*
X170622834Y-79998724D01*
X170626351Y-79984683D01*
X170631228Y-79971054D01*
X170637417Y-79957969D01*
X170644858Y-79945553D01*
X170653481Y-79933927D01*
X170663202Y-79923202D01*
X170673927Y-79913481D01*
X170685553Y-79904858D01*
X170697969Y-79897417D01*
X170711054Y-79891228D01*
X170724683Y-79886351D01*
X170738724Y-79882834D01*
X170753042Y-79880710D01*
X170767500Y-79880000D01*
X171062500Y-79880000D01*
X171076958Y-79880710D01*
X171076958Y-79880710D01*
G37*
D15*
X170915000Y-80200000D03*
M02*
