G04 #@! TF.GenerationSoftware,KiCad,Pcbnew,(5.1.2)-2*
G04 #@! TF.CreationDate,2019-10-10T00:04:00-05:00*
G04 #@! TF.ProjectId,MillingTest,4d696c6c-696e-4675-9465-73742e6b6963,rev?*
G04 #@! TF.SameCoordinates,Original*
G04 #@! TF.FileFunction,Legend,Top*
G04 #@! TF.FilePolarity,Positive*
%FSLAX46Y46*%
G04 Gerber Fmt 4.6, Leading zero omitted, Abs format (unit mm)*
G04 Created by KiCad (PCBNEW (5.1.2)-2) date 2019-10-10 00:04:00*
%MOMM*%
%LPD*%
G04 APERTURE LIST*
%ADD10C,0.120000*%
%ADD11C,0.150000*%
G04 APERTURE END LIST*
D10*
X187719000Y-72903000D02*
X187719000Y-72838000D01*
X191249000Y-72903000D02*
X191249000Y-72838000D01*
X187719000Y-79308000D02*
X187719000Y-79243000D01*
X191249000Y-79308000D02*
X191249000Y-79243000D01*
X192574000Y-79243000D02*
X191249000Y-79243000D01*
X191249000Y-72838000D02*
X187719000Y-72838000D01*
X191249000Y-79308000D02*
X187719000Y-79308000D01*
X179922779Y-63910000D02*
X179597221Y-63910000D01*
X179922779Y-64930000D02*
X179597221Y-64930000D01*
X173770000Y-68180000D02*
X173970000Y-68180000D01*
X172870000Y-67580000D02*
X173770000Y-68180000D01*
X173770000Y-66280000D02*
X173970000Y-66280000D01*
X172870000Y-66880000D02*
X173770000Y-66280000D01*
X172870000Y-68680000D02*
X172370000Y-68680000D01*
X172870000Y-65780000D02*
X172870000Y-68680000D01*
X172370000Y-65780000D02*
X172870000Y-65780000D01*
D11*
X184250000Y-73570000D02*
X184250000Y-79545000D01*
X177350000Y-75095000D02*
X177350000Y-79545000D01*
D10*
X180760000Y-66070000D02*
X178310000Y-66070000D01*
X178960000Y-69290000D02*
X180760000Y-69290000D01*
X176870000Y-81780000D02*
X167970000Y-87630000D01*
X176870000Y-80980000D02*
X176870000Y-81780000D01*
X176870000Y-80980000D02*
X184770000Y-80980000D01*
X184770000Y-80980000D02*
X184770000Y-81780000D01*
X184770000Y-81780000D02*
X193670000Y-87630000D01*
X167970000Y-87630000D02*
X167970000Y-92130000D01*
X193670000Y-87630000D02*
X193670000Y-92130000D01*
X167970000Y-95930000D02*
X167970000Y-101330000D01*
X193670000Y-95930000D02*
X193670000Y-101330000D01*
X193670000Y-101280000D02*
G75*
G02X190970000Y-103980000I-2700000J0D01*
G01*
X167970000Y-101280000D02*
G75*
G03X170670000Y-103980000I2700000J0D01*
G01*
X171341751Y-103701751D02*
G75*
G02X170670000Y-103980000I-671751J671751D01*
G01*
X190298249Y-103701751D02*
G75*
G03X190970000Y-103980000I671751J671751D01*
G01*
X190260444Y-103668071D02*
G75*
G03X171270000Y-103760000I-9440444J-11361929D01*
G01*
D11*
X189150666Y-79760380D02*
X189150666Y-80474666D01*
X189103047Y-80617523D01*
X189007809Y-80712761D01*
X188864952Y-80760380D01*
X188769714Y-80760380D01*
X190150666Y-80760380D02*
X189579238Y-80760380D01*
X189864952Y-80760380D02*
X189864952Y-79760380D01*
X189769714Y-79903238D01*
X189674476Y-79998476D01*
X189579238Y-80046095D01*
X185743333Y-66554380D02*
X185267142Y-66554380D01*
X185267142Y-65554380D01*
X186600476Y-66554380D02*
X186029047Y-66554380D01*
X186314761Y-66554380D02*
X186314761Y-65554380D01*
X186219523Y-65697238D01*
X186124285Y-65792476D01*
X186029047Y-65840095D01*
X189167142Y-67958666D02*
X189214761Y-68006285D01*
X189262380Y-68149142D01*
X189262380Y-68244380D01*
X189214761Y-68387238D01*
X189119523Y-68482476D01*
X189024285Y-68530095D01*
X188833809Y-68577714D01*
X188690952Y-68577714D01*
X188500476Y-68530095D01*
X188405238Y-68482476D01*
X188310000Y-68387238D01*
X188262380Y-68244380D01*
X188262380Y-68149142D01*
X188310000Y-68006285D01*
X188357619Y-67958666D01*
X188595714Y-67101523D02*
X189262380Y-67101523D01*
X188214761Y-67339619D02*
X188929047Y-67577714D01*
X188929047Y-66958666D01*
X179593333Y-66207142D02*
X179545714Y-66254761D01*
X179402857Y-66302380D01*
X179307619Y-66302380D01*
X179164761Y-66254761D01*
X179069523Y-66159523D01*
X179021904Y-66064285D01*
X178974285Y-65873809D01*
X178974285Y-65730952D01*
X179021904Y-65540476D01*
X179069523Y-65445238D01*
X179164761Y-65350000D01*
X179307619Y-65302380D01*
X179402857Y-65302380D01*
X179545714Y-65350000D01*
X179593333Y-65397619D01*
X179926666Y-65302380D02*
X180545714Y-65302380D01*
X180212380Y-65683333D01*
X180355238Y-65683333D01*
X180450476Y-65730952D01*
X180498095Y-65778571D01*
X180545714Y-65873809D01*
X180545714Y-66111904D01*
X180498095Y-66207142D01*
X180450476Y-66254761D01*
X180355238Y-66302380D01*
X180069523Y-66302380D01*
X179974285Y-66254761D01*
X179926666Y-66207142D01*
X185487142Y-67963666D02*
X185534761Y-68011285D01*
X185582380Y-68154142D01*
X185582380Y-68249380D01*
X185534761Y-68392238D01*
X185439523Y-68487476D01*
X185344285Y-68535095D01*
X185153809Y-68582714D01*
X185010952Y-68582714D01*
X184820476Y-68535095D01*
X184725238Y-68487476D01*
X184630000Y-68392238D01*
X184582380Y-68249380D01*
X184582380Y-68154142D01*
X184630000Y-68011285D01*
X184677619Y-67963666D01*
X184677619Y-67582714D02*
X184630000Y-67535095D01*
X184582380Y-67439857D01*
X184582380Y-67201761D01*
X184630000Y-67106523D01*
X184677619Y-67058904D01*
X184772857Y-67011285D01*
X184868095Y-67011285D01*
X185010952Y-67058904D01*
X185582380Y-67630333D01*
X185582380Y-67011285D01*
X172568809Y-64436190D02*
X172568809Y-64912380D01*
X172235476Y-63912380D02*
X172568809Y-64436190D01*
X172902142Y-63912380D01*
X173759285Y-64912380D02*
X173187857Y-64912380D01*
X173473571Y-64912380D02*
X173473571Y-63912380D01*
X173378333Y-64055238D01*
X173283095Y-64150476D01*
X173187857Y-64198095D01*
X184552380Y-78081904D02*
X185361904Y-78081904D01*
X185457142Y-78034285D01*
X185504761Y-77986666D01*
X185552380Y-77891428D01*
X185552380Y-77700952D01*
X185504761Y-77605714D01*
X185457142Y-77558095D01*
X185361904Y-77510476D01*
X184552380Y-77510476D01*
X184647619Y-77081904D02*
X184600000Y-77034285D01*
X184552380Y-76939047D01*
X184552380Y-76700952D01*
X184600000Y-76605714D01*
X184647619Y-76558095D01*
X184742857Y-76510476D01*
X184838095Y-76510476D01*
X184980952Y-76558095D01*
X185552380Y-77129523D01*
X185552380Y-76510476D01*
X179098095Y-64232380D02*
X179098095Y-65041904D01*
X179145714Y-65137142D01*
X179193333Y-65184761D01*
X179288571Y-65232380D01*
X179479047Y-65232380D01*
X179574285Y-65184761D01*
X179621904Y-65137142D01*
X179669523Y-65041904D01*
X179669523Y-64232380D01*
X180669523Y-65232380D02*
X180098095Y-65232380D01*
X180383809Y-65232380D02*
X180383809Y-64232380D01*
X180288571Y-64375238D01*
X180193333Y-64470476D01*
X180098095Y-64518095D01*
X180548333Y-83537142D02*
X180500714Y-83584761D01*
X180357857Y-83632380D01*
X180262619Y-83632380D01*
X180119761Y-83584761D01*
X180024523Y-83489523D01*
X179976904Y-83394285D01*
X179929285Y-83203809D01*
X179929285Y-83060952D01*
X179976904Y-82870476D01*
X180024523Y-82775238D01*
X180119761Y-82680000D01*
X180262619Y-82632380D01*
X180357857Y-82632380D01*
X180500714Y-82680000D01*
X180548333Y-82727619D01*
X181500714Y-83632380D02*
X180929285Y-83632380D01*
X181215000Y-83632380D02*
X181215000Y-82632380D01*
X181119761Y-82775238D01*
X181024523Y-82870476D01*
X180929285Y-82918095D01*
X180034285Y-79558571D02*
X180177142Y-79606190D01*
X180224761Y-79653809D01*
X180272380Y-79749047D01*
X180272380Y-79891904D01*
X180224761Y-79987142D01*
X180177142Y-80034761D01*
X180081904Y-80082380D01*
X179700952Y-80082380D01*
X179700952Y-79082380D01*
X180034285Y-79082380D01*
X180129523Y-79130000D01*
X180177142Y-79177619D01*
X180224761Y-79272857D01*
X180224761Y-79368095D01*
X180177142Y-79463333D01*
X180129523Y-79510952D01*
X180034285Y-79558571D01*
X179700952Y-79558571D01*
X180558095Y-79082380D02*
X181129523Y-79082380D01*
X180843809Y-80082380D02*
X180843809Y-79082380D01*
X181986666Y-80082380D02*
X181415238Y-80082380D01*
X181700952Y-80082380D02*
X181700952Y-79082380D01*
X181605714Y-79225238D01*
X181510476Y-79320476D01*
X181415238Y-79368095D01*
M02*
