G04 #@! TF.GenerationSoftware,KiCad,Pcbnew,(5.1.2)-2*
G04 #@! TF.CreationDate,2019-10-10T00:04:00-05:00*
G04 #@! TF.ProjectId,MillingTest,4d696c6c-696e-4675-9465-73742e6b6963,rev?*
G04 #@! TF.SameCoordinates,Original*
G04 #@! TF.FileFunction,Copper,L1,Top*
G04 #@! TF.FilePolarity,Positive*
%FSLAX46Y46*%
G04 Gerber Fmt 4.6, Leading zero omitted, Abs format (unit mm)*
G04 Created by KiCad (PCBNEW (5.1.2)-2) date 2019-10-10 00:04:00*
%MOMM*%
%LPD*%
G04 APERTURE LIST*
%ADD10R,2.400000X0.740000*%
%ADD11C,0.100000*%
%ADD12C,0.590000*%
%ADD13C,0.875000*%
%ADD14R,6.000000X2.500000*%
%ADD15C,1.000000*%
%ADD16R,0.450000X1.450000*%
%ADD17R,1.060000X0.650000*%
%ADD18R,8.000000X8.000000*%
%ADD19C,3.000000*%
%ADD20C,0.285750*%
%ADD21C,0.762000*%
%ADD22C,1.270000*%
%ADD23C,0.254000*%
G04 APERTURE END LIST*
D10*
X187534000Y-73533000D03*
X191434000Y-73533000D03*
X187534000Y-74803000D03*
X191434000Y-74803000D03*
X187534000Y-76073000D03*
X191434000Y-76073000D03*
X187534000Y-77343000D03*
X191434000Y-77343000D03*
X187534000Y-78613000D03*
X191434000Y-78613000D03*
D11*
G36*
X186556958Y-66952710D02*
G01*
X186571276Y-66954834D01*
X186585317Y-66958351D01*
X186598946Y-66963228D01*
X186612031Y-66969417D01*
X186624447Y-66976858D01*
X186636073Y-66985481D01*
X186646798Y-66995202D01*
X186656519Y-67005927D01*
X186665142Y-67017553D01*
X186672583Y-67029969D01*
X186678772Y-67043054D01*
X186683649Y-67056683D01*
X186687166Y-67070724D01*
X186689290Y-67085042D01*
X186690000Y-67099500D01*
X186690000Y-67444500D01*
X186689290Y-67458958D01*
X186687166Y-67473276D01*
X186683649Y-67487317D01*
X186678772Y-67500946D01*
X186672583Y-67514031D01*
X186665142Y-67526447D01*
X186656519Y-67538073D01*
X186646798Y-67548798D01*
X186636073Y-67558519D01*
X186624447Y-67567142D01*
X186612031Y-67574583D01*
X186598946Y-67580772D01*
X186585317Y-67585649D01*
X186571276Y-67589166D01*
X186556958Y-67591290D01*
X186542500Y-67592000D01*
X186247500Y-67592000D01*
X186233042Y-67591290D01*
X186218724Y-67589166D01*
X186204683Y-67585649D01*
X186191054Y-67580772D01*
X186177969Y-67574583D01*
X186165553Y-67567142D01*
X186153927Y-67558519D01*
X186143202Y-67548798D01*
X186133481Y-67538073D01*
X186124858Y-67526447D01*
X186117417Y-67514031D01*
X186111228Y-67500946D01*
X186106351Y-67487317D01*
X186102834Y-67473276D01*
X186100710Y-67458958D01*
X186100000Y-67444500D01*
X186100000Y-67099500D01*
X186100710Y-67085042D01*
X186102834Y-67070724D01*
X186106351Y-67056683D01*
X186111228Y-67043054D01*
X186117417Y-67029969D01*
X186124858Y-67017553D01*
X186133481Y-67005927D01*
X186143202Y-66995202D01*
X186153927Y-66985481D01*
X186165553Y-66976858D01*
X186177969Y-66969417D01*
X186191054Y-66963228D01*
X186204683Y-66958351D01*
X186218724Y-66954834D01*
X186233042Y-66952710D01*
X186247500Y-66952000D01*
X186542500Y-66952000D01*
X186556958Y-66952710D01*
X186556958Y-66952710D01*
G37*
D12*
X186395000Y-67272000D03*
D11*
G36*
X185586958Y-66952710D02*
G01*
X185601276Y-66954834D01*
X185615317Y-66958351D01*
X185628946Y-66963228D01*
X185642031Y-66969417D01*
X185654447Y-66976858D01*
X185666073Y-66985481D01*
X185676798Y-66995202D01*
X185686519Y-67005927D01*
X185695142Y-67017553D01*
X185702583Y-67029969D01*
X185708772Y-67043054D01*
X185713649Y-67056683D01*
X185717166Y-67070724D01*
X185719290Y-67085042D01*
X185720000Y-67099500D01*
X185720000Y-67444500D01*
X185719290Y-67458958D01*
X185717166Y-67473276D01*
X185713649Y-67487317D01*
X185708772Y-67500946D01*
X185702583Y-67514031D01*
X185695142Y-67526447D01*
X185686519Y-67538073D01*
X185676798Y-67548798D01*
X185666073Y-67558519D01*
X185654447Y-67567142D01*
X185642031Y-67574583D01*
X185628946Y-67580772D01*
X185615317Y-67585649D01*
X185601276Y-67589166D01*
X185586958Y-67591290D01*
X185572500Y-67592000D01*
X185277500Y-67592000D01*
X185263042Y-67591290D01*
X185248724Y-67589166D01*
X185234683Y-67585649D01*
X185221054Y-67580772D01*
X185207969Y-67574583D01*
X185195553Y-67567142D01*
X185183927Y-67558519D01*
X185173202Y-67548798D01*
X185163481Y-67538073D01*
X185154858Y-67526447D01*
X185147417Y-67514031D01*
X185141228Y-67500946D01*
X185136351Y-67487317D01*
X185132834Y-67473276D01*
X185130710Y-67458958D01*
X185130000Y-67444500D01*
X185130000Y-67099500D01*
X185130710Y-67085042D01*
X185132834Y-67070724D01*
X185136351Y-67056683D01*
X185141228Y-67043054D01*
X185147417Y-67029969D01*
X185154858Y-67017553D01*
X185163481Y-67005927D01*
X185173202Y-66995202D01*
X185183927Y-66985481D01*
X185195553Y-66976858D01*
X185207969Y-66969417D01*
X185221054Y-66963228D01*
X185234683Y-66958351D01*
X185248724Y-66954834D01*
X185263042Y-66952710D01*
X185277500Y-66952000D01*
X185572500Y-66952000D01*
X185586958Y-66952710D01*
X185586958Y-66952710D01*
G37*
D12*
X185425000Y-67272000D03*
D11*
G36*
X187826958Y-67982710D02*
G01*
X187841276Y-67984834D01*
X187855317Y-67988351D01*
X187868946Y-67993228D01*
X187882031Y-67999417D01*
X187894447Y-68006858D01*
X187906073Y-68015481D01*
X187916798Y-68025202D01*
X187926519Y-68035927D01*
X187935142Y-68047553D01*
X187942583Y-68059969D01*
X187948772Y-68073054D01*
X187953649Y-68086683D01*
X187957166Y-68100724D01*
X187959290Y-68115042D01*
X187960000Y-68129500D01*
X187960000Y-68424500D01*
X187959290Y-68438958D01*
X187957166Y-68453276D01*
X187953649Y-68467317D01*
X187948772Y-68480946D01*
X187942583Y-68494031D01*
X187935142Y-68506447D01*
X187926519Y-68518073D01*
X187916798Y-68528798D01*
X187906073Y-68538519D01*
X187894447Y-68547142D01*
X187882031Y-68554583D01*
X187868946Y-68560772D01*
X187855317Y-68565649D01*
X187841276Y-68569166D01*
X187826958Y-68571290D01*
X187812500Y-68572000D01*
X187467500Y-68572000D01*
X187453042Y-68571290D01*
X187438724Y-68569166D01*
X187424683Y-68565649D01*
X187411054Y-68560772D01*
X187397969Y-68554583D01*
X187385553Y-68547142D01*
X187373927Y-68538519D01*
X187363202Y-68528798D01*
X187353481Y-68518073D01*
X187344858Y-68506447D01*
X187337417Y-68494031D01*
X187331228Y-68480946D01*
X187326351Y-68467317D01*
X187322834Y-68453276D01*
X187320710Y-68438958D01*
X187320000Y-68424500D01*
X187320000Y-68129500D01*
X187320710Y-68115042D01*
X187322834Y-68100724D01*
X187326351Y-68086683D01*
X187331228Y-68073054D01*
X187337417Y-68059969D01*
X187344858Y-68047553D01*
X187353481Y-68035927D01*
X187363202Y-68025202D01*
X187373927Y-68015481D01*
X187385553Y-68006858D01*
X187397969Y-67999417D01*
X187411054Y-67993228D01*
X187424683Y-67988351D01*
X187438724Y-67984834D01*
X187453042Y-67982710D01*
X187467500Y-67982000D01*
X187812500Y-67982000D01*
X187826958Y-67982710D01*
X187826958Y-67982710D01*
G37*
D12*
X187640000Y-68277000D03*
D11*
G36*
X187826958Y-67012710D02*
G01*
X187841276Y-67014834D01*
X187855317Y-67018351D01*
X187868946Y-67023228D01*
X187882031Y-67029417D01*
X187894447Y-67036858D01*
X187906073Y-67045481D01*
X187916798Y-67055202D01*
X187926519Y-67065927D01*
X187935142Y-67077553D01*
X187942583Y-67089969D01*
X187948772Y-67103054D01*
X187953649Y-67116683D01*
X187957166Y-67130724D01*
X187959290Y-67145042D01*
X187960000Y-67159500D01*
X187960000Y-67454500D01*
X187959290Y-67468958D01*
X187957166Y-67483276D01*
X187953649Y-67497317D01*
X187948772Y-67510946D01*
X187942583Y-67524031D01*
X187935142Y-67536447D01*
X187926519Y-67548073D01*
X187916798Y-67558798D01*
X187906073Y-67568519D01*
X187894447Y-67577142D01*
X187882031Y-67584583D01*
X187868946Y-67590772D01*
X187855317Y-67595649D01*
X187841276Y-67599166D01*
X187826958Y-67601290D01*
X187812500Y-67602000D01*
X187467500Y-67602000D01*
X187453042Y-67601290D01*
X187438724Y-67599166D01*
X187424683Y-67595649D01*
X187411054Y-67590772D01*
X187397969Y-67584583D01*
X187385553Y-67577142D01*
X187373927Y-67568519D01*
X187363202Y-67558798D01*
X187353481Y-67548073D01*
X187344858Y-67536447D01*
X187337417Y-67524031D01*
X187331228Y-67510946D01*
X187326351Y-67497317D01*
X187322834Y-67483276D01*
X187320710Y-67468958D01*
X187320000Y-67454500D01*
X187320000Y-67159500D01*
X187320710Y-67145042D01*
X187322834Y-67130724D01*
X187326351Y-67116683D01*
X187331228Y-67103054D01*
X187337417Y-67089969D01*
X187344858Y-67077553D01*
X187353481Y-67065927D01*
X187363202Y-67055202D01*
X187373927Y-67045481D01*
X187385553Y-67036858D01*
X187397969Y-67029417D01*
X187411054Y-67023228D01*
X187424683Y-67018351D01*
X187438724Y-67014834D01*
X187453042Y-67012710D01*
X187467500Y-67012000D01*
X187812500Y-67012000D01*
X187826958Y-67012710D01*
X187826958Y-67012710D01*
G37*
D12*
X187640000Y-67307000D03*
D11*
G36*
X179212691Y-63946053D02*
G01*
X179233926Y-63949203D01*
X179254750Y-63954419D01*
X179274962Y-63961651D01*
X179294368Y-63970830D01*
X179312781Y-63981866D01*
X179330024Y-63994654D01*
X179345930Y-64009070D01*
X179360346Y-64024976D01*
X179373134Y-64042219D01*
X179384170Y-64060632D01*
X179393349Y-64080038D01*
X179400581Y-64100250D01*
X179405797Y-64121074D01*
X179408947Y-64142309D01*
X179410000Y-64163750D01*
X179410000Y-64676250D01*
X179408947Y-64697691D01*
X179405797Y-64718926D01*
X179400581Y-64739750D01*
X179393349Y-64759962D01*
X179384170Y-64779368D01*
X179373134Y-64797781D01*
X179360346Y-64815024D01*
X179345930Y-64830930D01*
X179330024Y-64845346D01*
X179312781Y-64858134D01*
X179294368Y-64869170D01*
X179274962Y-64878349D01*
X179254750Y-64885581D01*
X179233926Y-64890797D01*
X179212691Y-64893947D01*
X179191250Y-64895000D01*
X178753750Y-64895000D01*
X178732309Y-64893947D01*
X178711074Y-64890797D01*
X178690250Y-64885581D01*
X178670038Y-64878349D01*
X178650632Y-64869170D01*
X178632219Y-64858134D01*
X178614976Y-64845346D01*
X178599070Y-64830930D01*
X178584654Y-64815024D01*
X178571866Y-64797781D01*
X178560830Y-64779368D01*
X178551651Y-64759962D01*
X178544419Y-64739750D01*
X178539203Y-64718926D01*
X178536053Y-64697691D01*
X178535000Y-64676250D01*
X178535000Y-64163750D01*
X178536053Y-64142309D01*
X178539203Y-64121074D01*
X178544419Y-64100250D01*
X178551651Y-64080038D01*
X178560830Y-64060632D01*
X178571866Y-64042219D01*
X178584654Y-64024976D01*
X178599070Y-64009070D01*
X178614976Y-63994654D01*
X178632219Y-63981866D01*
X178650632Y-63970830D01*
X178670038Y-63961651D01*
X178690250Y-63954419D01*
X178711074Y-63949203D01*
X178732309Y-63946053D01*
X178753750Y-63945000D01*
X179191250Y-63945000D01*
X179212691Y-63946053D01*
X179212691Y-63946053D01*
G37*
D13*
X178972500Y-64420000D03*
D11*
G36*
X180787691Y-63946053D02*
G01*
X180808926Y-63949203D01*
X180829750Y-63954419D01*
X180849962Y-63961651D01*
X180869368Y-63970830D01*
X180887781Y-63981866D01*
X180905024Y-63994654D01*
X180920930Y-64009070D01*
X180935346Y-64024976D01*
X180948134Y-64042219D01*
X180959170Y-64060632D01*
X180968349Y-64080038D01*
X180975581Y-64100250D01*
X180980797Y-64121074D01*
X180983947Y-64142309D01*
X180985000Y-64163750D01*
X180985000Y-64676250D01*
X180983947Y-64697691D01*
X180980797Y-64718926D01*
X180975581Y-64739750D01*
X180968349Y-64759962D01*
X180959170Y-64779368D01*
X180948134Y-64797781D01*
X180935346Y-64815024D01*
X180920930Y-64830930D01*
X180905024Y-64845346D01*
X180887781Y-64858134D01*
X180869368Y-64869170D01*
X180849962Y-64878349D01*
X180829750Y-64885581D01*
X180808926Y-64890797D01*
X180787691Y-64893947D01*
X180766250Y-64895000D01*
X180328750Y-64895000D01*
X180307309Y-64893947D01*
X180286074Y-64890797D01*
X180265250Y-64885581D01*
X180245038Y-64878349D01*
X180225632Y-64869170D01*
X180207219Y-64858134D01*
X180189976Y-64845346D01*
X180174070Y-64830930D01*
X180159654Y-64815024D01*
X180146866Y-64797781D01*
X180135830Y-64779368D01*
X180126651Y-64759962D01*
X180119419Y-64739750D01*
X180114203Y-64718926D01*
X180111053Y-64697691D01*
X180110000Y-64676250D01*
X180110000Y-64163750D01*
X180111053Y-64142309D01*
X180114203Y-64121074D01*
X180119419Y-64100250D01*
X180126651Y-64080038D01*
X180135830Y-64060632D01*
X180146866Y-64042219D01*
X180159654Y-64024976D01*
X180174070Y-64009070D01*
X180189976Y-63994654D01*
X180207219Y-63981866D01*
X180225632Y-63970830D01*
X180245038Y-63961651D01*
X180265250Y-63954419D01*
X180286074Y-63949203D01*
X180307309Y-63946053D01*
X180328750Y-63945000D01*
X180766250Y-63945000D01*
X180787691Y-63946053D01*
X180787691Y-63946053D01*
G37*
D13*
X180547500Y-64420000D03*
D11*
G36*
X184146958Y-67987710D02*
G01*
X184161276Y-67989834D01*
X184175317Y-67993351D01*
X184188946Y-67998228D01*
X184202031Y-68004417D01*
X184214447Y-68011858D01*
X184226073Y-68020481D01*
X184236798Y-68030202D01*
X184246519Y-68040927D01*
X184255142Y-68052553D01*
X184262583Y-68064969D01*
X184268772Y-68078054D01*
X184273649Y-68091683D01*
X184277166Y-68105724D01*
X184279290Y-68120042D01*
X184280000Y-68134500D01*
X184280000Y-68429500D01*
X184279290Y-68443958D01*
X184277166Y-68458276D01*
X184273649Y-68472317D01*
X184268772Y-68485946D01*
X184262583Y-68499031D01*
X184255142Y-68511447D01*
X184246519Y-68523073D01*
X184236798Y-68533798D01*
X184226073Y-68543519D01*
X184214447Y-68552142D01*
X184202031Y-68559583D01*
X184188946Y-68565772D01*
X184175317Y-68570649D01*
X184161276Y-68574166D01*
X184146958Y-68576290D01*
X184132500Y-68577000D01*
X183787500Y-68577000D01*
X183773042Y-68576290D01*
X183758724Y-68574166D01*
X183744683Y-68570649D01*
X183731054Y-68565772D01*
X183717969Y-68559583D01*
X183705553Y-68552142D01*
X183693927Y-68543519D01*
X183683202Y-68533798D01*
X183673481Y-68523073D01*
X183664858Y-68511447D01*
X183657417Y-68499031D01*
X183651228Y-68485946D01*
X183646351Y-68472317D01*
X183642834Y-68458276D01*
X183640710Y-68443958D01*
X183640000Y-68429500D01*
X183640000Y-68134500D01*
X183640710Y-68120042D01*
X183642834Y-68105724D01*
X183646351Y-68091683D01*
X183651228Y-68078054D01*
X183657417Y-68064969D01*
X183664858Y-68052553D01*
X183673481Y-68040927D01*
X183683202Y-68030202D01*
X183693927Y-68020481D01*
X183705553Y-68011858D01*
X183717969Y-68004417D01*
X183731054Y-67998228D01*
X183744683Y-67993351D01*
X183758724Y-67989834D01*
X183773042Y-67987710D01*
X183787500Y-67987000D01*
X184132500Y-67987000D01*
X184146958Y-67987710D01*
X184146958Y-67987710D01*
G37*
D12*
X183960000Y-68282000D03*
D11*
G36*
X184146958Y-67017710D02*
G01*
X184161276Y-67019834D01*
X184175317Y-67023351D01*
X184188946Y-67028228D01*
X184202031Y-67034417D01*
X184214447Y-67041858D01*
X184226073Y-67050481D01*
X184236798Y-67060202D01*
X184246519Y-67070927D01*
X184255142Y-67082553D01*
X184262583Y-67094969D01*
X184268772Y-67108054D01*
X184273649Y-67121683D01*
X184277166Y-67135724D01*
X184279290Y-67150042D01*
X184280000Y-67164500D01*
X184280000Y-67459500D01*
X184279290Y-67473958D01*
X184277166Y-67488276D01*
X184273649Y-67502317D01*
X184268772Y-67515946D01*
X184262583Y-67529031D01*
X184255142Y-67541447D01*
X184246519Y-67553073D01*
X184236798Y-67563798D01*
X184226073Y-67573519D01*
X184214447Y-67582142D01*
X184202031Y-67589583D01*
X184188946Y-67595772D01*
X184175317Y-67600649D01*
X184161276Y-67604166D01*
X184146958Y-67606290D01*
X184132500Y-67607000D01*
X183787500Y-67607000D01*
X183773042Y-67606290D01*
X183758724Y-67604166D01*
X183744683Y-67600649D01*
X183731054Y-67595772D01*
X183717969Y-67589583D01*
X183705553Y-67582142D01*
X183693927Y-67573519D01*
X183683202Y-67563798D01*
X183673481Y-67553073D01*
X183664858Y-67541447D01*
X183657417Y-67529031D01*
X183651228Y-67515946D01*
X183646351Y-67502317D01*
X183642834Y-67488276D01*
X183640710Y-67473958D01*
X183640000Y-67459500D01*
X183640000Y-67164500D01*
X183640710Y-67150042D01*
X183642834Y-67135724D01*
X183646351Y-67121683D01*
X183651228Y-67108054D01*
X183657417Y-67094969D01*
X183664858Y-67082553D01*
X183673481Y-67070927D01*
X183683202Y-67060202D01*
X183693927Y-67050481D01*
X183705553Y-67041858D01*
X183717969Y-67034417D01*
X183731054Y-67028228D01*
X183744683Y-67023351D01*
X183758724Y-67019834D01*
X183773042Y-67017710D01*
X183787500Y-67017000D01*
X184132500Y-67017000D01*
X184146958Y-67017710D01*
X184146958Y-67017710D01*
G37*
D12*
X183960000Y-67312000D03*
D14*
X169170000Y-67230000D03*
D15*
X174670000Y-68180000D03*
X174670000Y-66280000D03*
D16*
X183725000Y-80270000D03*
X183075000Y-80270000D03*
X182425000Y-80270000D03*
X181775000Y-80270000D03*
X181125000Y-80270000D03*
X180475000Y-80270000D03*
X179825000Y-80270000D03*
X179175000Y-80270000D03*
X178525000Y-80270000D03*
X177875000Y-80270000D03*
X177875000Y-74370000D03*
X178525000Y-74370000D03*
X179175000Y-74370000D03*
X179825000Y-74370000D03*
X180475000Y-74370000D03*
X181125000Y-74370000D03*
X181775000Y-74370000D03*
X182425000Y-74370000D03*
X183075000Y-74370000D03*
X183725000Y-74370000D03*
D17*
X180960000Y-67680000D03*
X180960000Y-66730000D03*
X180960000Y-68630000D03*
X178760000Y-68630000D03*
X178760000Y-67680000D03*
X178760000Y-66730000D03*
D11*
G36*
X180391958Y-81690710D02*
G01*
X180406276Y-81692834D01*
X180420317Y-81696351D01*
X180433946Y-81701228D01*
X180447031Y-81707417D01*
X180459447Y-81714858D01*
X180471073Y-81723481D01*
X180481798Y-81733202D01*
X180491519Y-81743927D01*
X180500142Y-81755553D01*
X180507583Y-81767969D01*
X180513772Y-81781054D01*
X180518649Y-81794683D01*
X180522166Y-81808724D01*
X180524290Y-81823042D01*
X180525000Y-81837500D01*
X180525000Y-82182500D01*
X180524290Y-82196958D01*
X180522166Y-82211276D01*
X180518649Y-82225317D01*
X180513772Y-82238946D01*
X180507583Y-82252031D01*
X180500142Y-82264447D01*
X180491519Y-82276073D01*
X180481798Y-82286798D01*
X180471073Y-82296519D01*
X180459447Y-82305142D01*
X180447031Y-82312583D01*
X180433946Y-82318772D01*
X180420317Y-82323649D01*
X180406276Y-82327166D01*
X180391958Y-82329290D01*
X180377500Y-82330000D01*
X180082500Y-82330000D01*
X180068042Y-82329290D01*
X180053724Y-82327166D01*
X180039683Y-82323649D01*
X180026054Y-82318772D01*
X180012969Y-82312583D01*
X180000553Y-82305142D01*
X179988927Y-82296519D01*
X179978202Y-82286798D01*
X179968481Y-82276073D01*
X179959858Y-82264447D01*
X179952417Y-82252031D01*
X179946228Y-82238946D01*
X179941351Y-82225317D01*
X179937834Y-82211276D01*
X179935710Y-82196958D01*
X179935000Y-82182500D01*
X179935000Y-81837500D01*
X179935710Y-81823042D01*
X179937834Y-81808724D01*
X179941351Y-81794683D01*
X179946228Y-81781054D01*
X179952417Y-81767969D01*
X179959858Y-81755553D01*
X179968481Y-81743927D01*
X179978202Y-81733202D01*
X179988927Y-81723481D01*
X180000553Y-81714858D01*
X180012969Y-81707417D01*
X180026054Y-81701228D01*
X180039683Y-81696351D01*
X180053724Y-81692834D01*
X180068042Y-81690710D01*
X180082500Y-81690000D01*
X180377500Y-81690000D01*
X180391958Y-81690710D01*
X180391958Y-81690710D01*
G37*
D12*
X180230000Y-82010000D03*
D11*
G36*
X181361958Y-81690710D02*
G01*
X181376276Y-81692834D01*
X181390317Y-81696351D01*
X181403946Y-81701228D01*
X181417031Y-81707417D01*
X181429447Y-81714858D01*
X181441073Y-81723481D01*
X181451798Y-81733202D01*
X181461519Y-81743927D01*
X181470142Y-81755553D01*
X181477583Y-81767969D01*
X181483772Y-81781054D01*
X181488649Y-81794683D01*
X181492166Y-81808724D01*
X181494290Y-81823042D01*
X181495000Y-81837500D01*
X181495000Y-82182500D01*
X181494290Y-82196958D01*
X181492166Y-82211276D01*
X181488649Y-82225317D01*
X181483772Y-82238946D01*
X181477583Y-82252031D01*
X181470142Y-82264447D01*
X181461519Y-82276073D01*
X181451798Y-82286798D01*
X181441073Y-82296519D01*
X181429447Y-82305142D01*
X181417031Y-82312583D01*
X181403946Y-82318772D01*
X181390317Y-82323649D01*
X181376276Y-82327166D01*
X181361958Y-82329290D01*
X181347500Y-82330000D01*
X181052500Y-82330000D01*
X181038042Y-82329290D01*
X181023724Y-82327166D01*
X181009683Y-82323649D01*
X180996054Y-82318772D01*
X180982969Y-82312583D01*
X180970553Y-82305142D01*
X180958927Y-82296519D01*
X180948202Y-82286798D01*
X180938481Y-82276073D01*
X180929858Y-82264447D01*
X180922417Y-82252031D01*
X180916228Y-82238946D01*
X180911351Y-82225317D01*
X180907834Y-82211276D01*
X180905710Y-82196958D01*
X180905000Y-82182500D01*
X180905000Y-81837500D01*
X180905710Y-81823042D01*
X180907834Y-81808724D01*
X180911351Y-81794683D01*
X180916228Y-81781054D01*
X180922417Y-81767969D01*
X180929858Y-81755553D01*
X180938481Y-81743927D01*
X180948202Y-81733202D01*
X180958927Y-81723481D01*
X180970553Y-81714858D01*
X180982969Y-81707417D01*
X180996054Y-81701228D01*
X181009683Y-81696351D01*
X181023724Y-81692834D01*
X181038042Y-81690710D01*
X181052500Y-81690000D01*
X181347500Y-81690000D01*
X181361958Y-81690710D01*
X181361958Y-81690710D01*
G37*
D12*
X181200000Y-82010000D03*
D18*
X180820000Y-94030000D03*
D19*
X193520000Y-94030000D03*
X168120000Y-94030000D03*
D20*
X180475000Y-81765000D02*
X180475000Y-80270000D01*
X180230000Y-82010000D02*
X180475000Y-81765000D01*
X180475000Y-80270000D02*
X180475000Y-78478000D01*
X177944250Y-67680000D02*
X177679250Y-67945000D01*
X178760000Y-67680000D02*
X177944250Y-67680000D01*
X177679250Y-67945000D02*
X176784000Y-67945000D01*
X180475000Y-78478000D02*
X179443000Y-78478000D01*
X179443000Y-78478000D02*
X179324000Y-78359000D01*
X179324000Y-78359000D02*
X179324000Y-77470000D01*
X177944250Y-67680000D02*
X177044250Y-68580000D01*
X176644250Y-68180000D02*
X174670000Y-68180000D01*
X177044250Y-68580000D02*
X176644250Y-68180000D01*
X183960000Y-68282000D02*
X185122000Y-68282000D01*
X185127000Y-68277000D02*
X187640000Y-68277000D01*
X185122000Y-68282000D02*
X185127000Y-68277000D01*
X187640000Y-68277000D02*
X190197000Y-68277000D01*
X191434000Y-77343000D02*
X191434000Y-76073000D01*
X192919750Y-73533000D02*
X193046750Y-73660000D01*
X191434000Y-73533000D02*
X192919750Y-73533000D01*
X180910000Y-66680000D02*
X180960000Y-66730000D01*
X180547500Y-64420000D02*
X180910000Y-64782500D01*
X180910000Y-64782500D02*
X180910000Y-66680000D01*
X181125000Y-81935000D02*
X181200000Y-82010000D01*
X181125000Y-80270000D02*
X181125000Y-81935000D01*
X181125000Y-80270000D02*
X181125000Y-74370000D01*
X180144250Y-66730000D02*
X180960000Y-66730000D01*
X180087124Y-66787126D02*
X180144250Y-66730000D01*
X180087124Y-72321374D02*
X180087124Y-66787126D01*
X181125000Y-73359250D02*
X180087124Y-72321374D01*
X181125000Y-74370000D02*
X181125000Y-73359250D01*
D21*
X192264000Y-78613000D02*
X191434000Y-78613000D01*
X192278000Y-78627000D02*
X192264000Y-78613000D01*
X192278000Y-80518000D02*
X192278000Y-78627000D01*
X191262000Y-81534000D02*
X192278000Y-80518000D01*
X190786000Y-82010000D02*
X191262000Y-81534000D01*
D22*
X193520000Y-98580000D02*
X193520000Y-94030000D01*
X187960000Y-104140000D02*
X193520000Y-98580000D01*
X176108680Y-104140000D02*
X187960000Y-104140000D01*
X168120000Y-94030000D02*
X168120000Y-96151320D01*
X168120000Y-96151320D02*
X176108680Y-104140000D01*
X189770000Y-88158680D02*
X189770000Y-82010000D01*
X193520000Y-91908680D02*
X189770000Y-88158680D01*
X193520000Y-94030000D02*
X193520000Y-91908680D01*
D21*
X181200000Y-82010000D02*
X189770000Y-82010000D01*
X189770000Y-82010000D02*
X190786000Y-82010000D01*
D20*
X186980000Y-73410000D02*
X185452000Y-71882000D01*
X181775000Y-73359250D02*
X181775000Y-74370000D01*
X185452000Y-71882000D02*
X182753000Y-71882000D01*
X181775000Y-72860000D02*
X181775000Y-73359250D01*
X182753000Y-71882000D02*
X181775000Y-72860000D01*
X182425000Y-74370000D02*
X182425000Y-73359250D01*
X182425000Y-73359250D02*
X183140250Y-72644000D01*
X183140250Y-72644000D02*
X184785000Y-72644000D01*
X184785000Y-72644000D02*
X185547000Y-73406000D01*
X186186000Y-75950000D02*
X186980000Y-75950000D01*
X185547000Y-73406000D02*
X185547000Y-75311000D01*
X185547000Y-75311000D02*
X186186000Y-75950000D01*
X186048250Y-78613000D02*
X187534000Y-78613000D01*
X183075000Y-75639750D02*
X186048250Y-78613000D01*
X183075000Y-74370000D02*
X183075000Y-75639750D01*
X176880000Y-66730000D02*
X178760000Y-66730000D01*
X174670000Y-66280000D02*
X176430000Y-66280000D01*
X176430000Y-66280000D02*
X176880000Y-66730000D01*
X183820000Y-67172000D02*
X183960000Y-67312000D01*
X184000000Y-67272000D02*
X183960000Y-67312000D01*
X185425000Y-67272000D02*
X184000000Y-67272000D01*
X183592000Y-67680000D02*
X183960000Y-67312000D01*
X180960000Y-67680000D02*
X183592000Y-67680000D01*
X186430000Y-67307000D02*
X186395000Y-67272000D01*
X187640000Y-67307000D02*
X186430000Y-67307000D01*
X184235750Y-80270000D02*
X183725000Y-80270000D01*
X184404000Y-80518000D02*
X184404000Y-80438250D01*
X188468000Y-80518000D02*
X184404000Y-80518000D01*
X181165000Y-68630000D02*
X183147000Y-70612000D01*
X180960000Y-68630000D02*
X181165000Y-68630000D01*
X183147000Y-70612000D02*
X187833000Y-70612000D01*
X187833000Y-70612000D02*
X189484000Y-72263000D01*
X184404000Y-80438250D02*
X184235750Y-80270000D01*
X189484000Y-72263000D02*
X189484000Y-79502000D01*
X189484000Y-79502000D02*
X188468000Y-80518000D01*
X179175000Y-73359250D02*
X179175000Y-74370000D01*
X179175000Y-69655750D02*
X179175000Y-73359250D01*
X178760000Y-69240750D02*
X179175000Y-69655750D01*
X178760000Y-68630000D02*
X178760000Y-69240750D01*
D23*
G36*
X197079000Y-107959000D02*
G01*
X163601000Y-107959000D01*
X163601000Y-65980000D01*
X165149085Y-65980000D01*
X165149085Y-68480000D01*
X165168702Y-68679171D01*
X165226798Y-68870687D01*
X165321140Y-69047190D01*
X165448104Y-69201896D01*
X165602810Y-69328860D01*
X165779313Y-69423202D01*
X165970829Y-69481298D01*
X166170000Y-69500915D01*
X172170000Y-69500915D01*
X172369171Y-69481298D01*
X172560687Y-69423202D01*
X172737190Y-69328860D01*
X172891896Y-69201896D01*
X173018860Y-69047190D01*
X173113202Y-68870687D01*
X173171298Y-68679171D01*
X173190915Y-68480000D01*
X173190915Y-66614897D01*
X173212259Y-66722201D01*
X173326538Y-66998095D01*
X173492446Y-67246393D01*
X173703607Y-67457554D01*
X173951905Y-67623462D01*
X174227799Y-67737741D01*
X174520687Y-67796000D01*
X174819313Y-67796000D01*
X175112201Y-67737741D01*
X175388095Y-67623462D01*
X175636393Y-67457554D01*
X175655072Y-67438875D01*
X175949979Y-67438875D01*
X176020294Y-67509190D01*
X176056587Y-67553413D01*
X176233048Y-67698231D01*
X176434372Y-67805841D01*
X176652821Y-67872107D01*
X176823071Y-67888875D01*
X176823080Y-67888875D01*
X176879999Y-67894481D01*
X176936918Y-67888875D01*
X177300395Y-67888875D01*
X177286798Y-67914313D01*
X177228702Y-68105829D01*
X177209085Y-68305000D01*
X177209085Y-68955000D01*
X177228702Y-69154171D01*
X177286798Y-69345687D01*
X177381140Y-69522190D01*
X177508104Y-69676896D01*
X177662810Y-69803860D01*
X177780611Y-69866825D01*
X177791769Y-69887701D01*
X177900297Y-70019943D01*
X177900300Y-70019946D01*
X177936588Y-70064163D01*
X177980805Y-70100451D01*
X178016125Y-70135771D01*
X178016126Y-72624085D01*
X177650000Y-72624085D01*
X177450829Y-72643702D01*
X177259313Y-72701798D01*
X177082810Y-72796140D01*
X176928104Y-72923104D01*
X176801140Y-73077810D01*
X176706798Y-73254313D01*
X176648702Y-73445829D01*
X176629085Y-73645000D01*
X176629085Y-75095000D01*
X176648702Y-75294171D01*
X176706798Y-75485687D01*
X176801140Y-75662190D01*
X176928104Y-75816896D01*
X177082810Y-75943860D01*
X177259313Y-76038202D01*
X177450829Y-76096298D01*
X177650000Y-76115915D01*
X178100000Y-76115915D01*
X178200000Y-76106066D01*
X178300000Y-76115915D01*
X178750000Y-76115915D01*
X178850000Y-76106066D01*
X178950000Y-76115915D01*
X179400000Y-76115915D01*
X179500000Y-76106066D01*
X179600000Y-76115915D01*
X179966126Y-76115915D01*
X179966125Y-78524085D01*
X179600000Y-78524085D01*
X179500000Y-78533934D01*
X179400000Y-78524085D01*
X178950000Y-78524085D01*
X178850000Y-78533934D01*
X178750000Y-78524085D01*
X178300000Y-78524085D01*
X178200000Y-78533934D01*
X178100000Y-78524085D01*
X177650000Y-78524085D01*
X177450829Y-78543702D01*
X177259313Y-78601798D01*
X177082810Y-78696140D01*
X176928104Y-78823104D01*
X176801140Y-78977810D01*
X176706798Y-79154313D01*
X176648702Y-79345829D01*
X176629085Y-79545000D01*
X176629085Y-80995000D01*
X176648702Y-81194171D01*
X176706798Y-81385687D01*
X176801140Y-81562190D01*
X176928104Y-81716896D01*
X177082810Y-81843860D01*
X177259313Y-81938202D01*
X177450829Y-81996298D01*
X177650000Y-82015915D01*
X178100000Y-82015915D01*
X178200000Y-82006066D01*
X178300000Y-82015915D01*
X178750000Y-82015915D01*
X178850000Y-82006066D01*
X178950000Y-82015915D01*
X179400000Y-82015915D01*
X179500000Y-82006066D01*
X179600000Y-82015915D01*
X179796824Y-82015915D01*
X179823214Y-82283860D01*
X179903096Y-82547195D01*
X180032817Y-82789887D01*
X180207392Y-83002608D01*
X180420113Y-83177183D01*
X180662805Y-83306904D01*
X180926140Y-83386786D01*
X181131375Y-83407000D01*
X188119001Y-83407000D01*
X188119000Y-88077579D01*
X188111012Y-88158680D01*
X188119000Y-88239781D01*
X188119000Y-88239783D01*
X188142889Y-88482332D01*
X188237295Y-88793546D01*
X188390602Y-89080363D01*
X188596918Y-89331762D01*
X188659921Y-89383467D01*
X191634146Y-92357692D01*
X191565695Y-92426143D01*
X191290350Y-92838227D01*
X191100688Y-93296110D01*
X191004000Y-93782196D01*
X191004000Y-94277804D01*
X191100688Y-94763890D01*
X191290350Y-95221773D01*
X191565695Y-95633857D01*
X191869001Y-95937163D01*
X191869000Y-97896133D01*
X187276134Y-102489000D01*
X176792546Y-102489000D01*
X170005854Y-95702308D01*
X170074305Y-95633857D01*
X170349650Y-95221773D01*
X170539312Y-94763890D01*
X170636000Y-94277804D01*
X170636000Y-93782196D01*
X170539312Y-93296110D01*
X170349650Y-92838227D01*
X170074305Y-92426143D01*
X169723857Y-92075695D01*
X169311773Y-91800350D01*
X168853890Y-91610688D01*
X168367804Y-91514000D01*
X167872196Y-91514000D01*
X167386110Y-91610688D01*
X166928227Y-91800350D01*
X166516143Y-92075695D01*
X166165695Y-92426143D01*
X165890350Y-92838227D01*
X165700688Y-93296110D01*
X165604000Y-93782196D01*
X165604000Y-94277804D01*
X165700688Y-94763890D01*
X165890350Y-95221773D01*
X166165695Y-95633857D01*
X166469001Y-95937163D01*
X166469001Y-96070210D01*
X166461012Y-96151320D01*
X166492890Y-96474972D01*
X166587296Y-96786187D01*
X166726862Y-97047296D01*
X166740603Y-97073004D01*
X166946919Y-97324402D01*
X167009916Y-97376102D01*
X174883893Y-105250079D01*
X174935598Y-105313082D01*
X175186996Y-105519398D01*
X175473812Y-105672705D01*
X175546246Y-105694677D01*
X175785027Y-105767111D01*
X176027576Y-105791000D01*
X176027579Y-105791000D01*
X176108680Y-105798988D01*
X176189781Y-105791000D01*
X187878899Y-105791000D01*
X187960000Y-105798988D01*
X188041101Y-105791000D01*
X188041104Y-105791000D01*
X188283653Y-105767111D01*
X188594867Y-105672705D01*
X188881684Y-105519398D01*
X189133082Y-105313082D01*
X189184787Y-105250079D01*
X194630086Y-99804781D01*
X194693082Y-99753082D01*
X194753583Y-99679362D01*
X194899398Y-99501685D01*
X195052704Y-99214868D01*
X195052705Y-99214867D01*
X195147111Y-98903653D01*
X195171000Y-98661104D01*
X195171000Y-98661102D01*
X195178988Y-98580001D01*
X195171000Y-98498900D01*
X195171000Y-95937162D01*
X195474305Y-95633857D01*
X195749650Y-95221773D01*
X195939312Y-94763890D01*
X196036000Y-94277804D01*
X196036000Y-93782196D01*
X195939312Y-93296110D01*
X195749650Y-92838227D01*
X195474305Y-92426143D01*
X195171000Y-92122838D01*
X195171000Y-91989781D01*
X195178988Y-91908680D01*
X195168318Y-91800350D01*
X195147111Y-91585027D01*
X195052705Y-91273813D01*
X194899398Y-90986996D01*
X194693082Y-90735598D01*
X194630085Y-90683898D01*
X191421000Y-87474814D01*
X191421000Y-83254626D01*
X191565887Y-83177183D01*
X191778608Y-83002608D01*
X191822364Y-82949291D01*
X192298353Y-82473302D01*
X193217301Y-81554355D01*
X193270607Y-81510608D01*
X193445183Y-81297887D01*
X193574904Y-81055195D01*
X193654786Y-80791860D01*
X193675000Y-80586625D01*
X193675000Y-80586624D01*
X193681759Y-80518000D01*
X193675000Y-80449375D01*
X193675000Y-78695625D01*
X193681759Y-78627000D01*
X193673555Y-78543702D01*
X193654915Y-78354450D01*
X193654915Y-78243000D01*
X193635298Y-78043829D01*
X193577202Y-77852313D01*
X193482860Y-77675810D01*
X193355896Y-77521104D01*
X193201190Y-77394140D01*
X193024687Y-77299798D01*
X192833171Y-77241702D01*
X192634000Y-77222085D01*
X192394407Y-77222085D01*
X192332625Y-77216000D01*
X192264000Y-77209241D01*
X192195375Y-77216000D01*
X191365375Y-77216000D01*
X191303593Y-77222085D01*
X190642875Y-77222085D01*
X190642875Y-76193915D01*
X192634000Y-76193915D01*
X192833171Y-76174298D01*
X193024687Y-76116202D01*
X193201190Y-76021860D01*
X193355896Y-75894896D01*
X193482860Y-75740190D01*
X193577202Y-75563687D01*
X193635298Y-75372171D01*
X193654915Y-75173000D01*
X193654915Y-74433000D01*
X193635298Y-74233829D01*
X193577202Y-74042313D01*
X193482860Y-73865810D01*
X193355896Y-73711104D01*
X193201190Y-73584140D01*
X193024687Y-73489798D01*
X192833171Y-73431702D01*
X192634000Y-73412085D01*
X190642875Y-73412085D01*
X190642875Y-72319929D01*
X190648482Y-72263000D01*
X190626107Y-72035821D01*
X190559841Y-71817372D01*
X190452231Y-71616048D01*
X190343703Y-71483806D01*
X190343701Y-71483804D01*
X190307413Y-71439587D01*
X190263197Y-71403300D01*
X188692705Y-69832809D01*
X188656413Y-69788587D01*
X188479952Y-69643769D01*
X188278628Y-69536159D01*
X188060179Y-69469893D01*
X187889929Y-69453125D01*
X187889919Y-69453125D01*
X187833000Y-69447519D01*
X187776081Y-69453125D01*
X183627022Y-69453125D01*
X183012772Y-68838875D01*
X183535081Y-68838875D01*
X183592000Y-68844481D01*
X183648919Y-68838875D01*
X183648929Y-68838875D01*
X183819179Y-68822107D01*
X184037628Y-68755841D01*
X184238952Y-68648231D01*
X184281601Y-68613230D01*
X184360446Y-68605464D01*
X184579633Y-68538975D01*
X184719032Y-68464465D01*
X184830367Y-68523975D01*
X185049554Y-68590464D01*
X185277500Y-68612915D01*
X185572500Y-68612915D01*
X185800446Y-68590464D01*
X185910000Y-68557231D01*
X186019554Y-68590464D01*
X186247500Y-68612915D01*
X186542500Y-68612915D01*
X186770446Y-68590464D01*
X186989633Y-68523975D01*
X186995646Y-68520761D01*
X187020367Y-68533975D01*
X187239554Y-68600464D01*
X187467500Y-68622915D01*
X187812500Y-68622915D01*
X188040446Y-68600464D01*
X188259633Y-68533975D01*
X188461637Y-68426002D01*
X188638694Y-68280694D01*
X188784002Y-68103637D01*
X188891975Y-67901633D01*
X188958464Y-67682446D01*
X188980915Y-67454500D01*
X188980915Y-67159500D01*
X188958464Y-66931554D01*
X188891975Y-66712367D01*
X188784002Y-66510363D01*
X188638694Y-66333306D01*
X188461637Y-66187998D01*
X188259633Y-66080025D01*
X188040446Y-66013536D01*
X187812500Y-65991085D01*
X187467500Y-65991085D01*
X187239554Y-66013536D01*
X187072372Y-66064250D01*
X186989633Y-66020025D01*
X186770446Y-65953536D01*
X186542500Y-65931085D01*
X186247500Y-65931085D01*
X186019554Y-65953536D01*
X185910000Y-65986769D01*
X185800446Y-65953536D01*
X185572500Y-65931085D01*
X185277500Y-65931085D01*
X185049554Y-65953536D01*
X184830367Y-66020025D01*
X184656189Y-66113125D01*
X184632205Y-66113125D01*
X184579633Y-66085025D01*
X184360446Y-66018536D01*
X184132500Y-65996085D01*
X183787500Y-65996085D01*
X183559554Y-66018536D01*
X183340367Y-66085025D01*
X183138363Y-66192998D01*
X182961306Y-66338306D01*
X182815998Y-66515363D01*
X182812918Y-66521125D01*
X182510915Y-66521125D01*
X182510915Y-66405000D01*
X182491298Y-66205829D01*
X182433202Y-66014313D01*
X182338860Y-65837810D01*
X182211896Y-65683104D01*
X182068875Y-65565730D01*
X182068875Y-64839418D01*
X182074481Y-64782499D01*
X182068875Y-64725580D01*
X182068875Y-64725571D01*
X182052107Y-64555321D01*
X182005915Y-64403047D01*
X182005915Y-64163750D01*
X181982095Y-63921903D01*
X181911551Y-63689351D01*
X181796994Y-63475029D01*
X181642826Y-63287174D01*
X181454971Y-63133006D01*
X181240649Y-63018449D01*
X181008097Y-62947905D01*
X180766250Y-62924085D01*
X180328750Y-62924085D01*
X180086903Y-62947905D01*
X179854351Y-63018449D01*
X179640029Y-63133006D01*
X179452174Y-63287174D01*
X179298006Y-63475029D01*
X179183449Y-63689351D01*
X179112905Y-63921903D01*
X179089085Y-64163750D01*
X179089085Y-64676250D01*
X179112905Y-64918097D01*
X179183449Y-65150649D01*
X179298006Y-65364971D01*
X179315776Y-65386624D01*
X179290000Y-65384085D01*
X178230000Y-65384085D01*
X178030829Y-65403702D01*
X177839313Y-65461798D01*
X177662810Y-65556140D01*
X177644551Y-65571125D01*
X177360021Y-65571125D01*
X177289706Y-65500810D01*
X177253413Y-65456587D01*
X177076952Y-65311769D01*
X176875628Y-65204159D01*
X176657179Y-65137893D01*
X176486929Y-65121125D01*
X176486919Y-65121125D01*
X176430000Y-65115519D01*
X176373081Y-65121125D01*
X175655072Y-65121125D01*
X175636393Y-65102446D01*
X175388095Y-64936538D01*
X175112201Y-64822259D01*
X174819313Y-64764000D01*
X174520687Y-64764000D01*
X174227799Y-64822259D01*
X173951905Y-64936538D01*
X173703607Y-65102446D01*
X173492446Y-65313607D01*
X173326538Y-65561905D01*
X173212259Y-65837799D01*
X173188616Y-65956660D01*
X173171298Y-65780829D01*
X173113202Y-65589313D01*
X173018860Y-65412810D01*
X172891896Y-65258104D01*
X172737190Y-65131140D01*
X172560687Y-65036798D01*
X172369171Y-64978702D01*
X172170000Y-64959085D01*
X166170000Y-64959085D01*
X165970829Y-64978702D01*
X165779313Y-65036798D01*
X165602810Y-65131140D01*
X165448104Y-65258104D01*
X165321140Y-65412810D01*
X165226798Y-65589313D01*
X165168702Y-65780829D01*
X165149085Y-65980000D01*
X163601000Y-65980000D01*
X163601000Y-62001000D01*
X197079001Y-62001000D01*
X197079000Y-107959000D01*
X197079000Y-107959000D01*
G37*
X197079000Y-107959000D02*
X163601000Y-107959000D01*
X163601000Y-65980000D01*
X165149085Y-65980000D01*
X165149085Y-68480000D01*
X165168702Y-68679171D01*
X165226798Y-68870687D01*
X165321140Y-69047190D01*
X165448104Y-69201896D01*
X165602810Y-69328860D01*
X165779313Y-69423202D01*
X165970829Y-69481298D01*
X166170000Y-69500915D01*
X172170000Y-69500915D01*
X172369171Y-69481298D01*
X172560687Y-69423202D01*
X172737190Y-69328860D01*
X172891896Y-69201896D01*
X173018860Y-69047190D01*
X173113202Y-68870687D01*
X173171298Y-68679171D01*
X173190915Y-68480000D01*
X173190915Y-66614897D01*
X173212259Y-66722201D01*
X173326538Y-66998095D01*
X173492446Y-67246393D01*
X173703607Y-67457554D01*
X173951905Y-67623462D01*
X174227799Y-67737741D01*
X174520687Y-67796000D01*
X174819313Y-67796000D01*
X175112201Y-67737741D01*
X175388095Y-67623462D01*
X175636393Y-67457554D01*
X175655072Y-67438875D01*
X175949979Y-67438875D01*
X176020294Y-67509190D01*
X176056587Y-67553413D01*
X176233048Y-67698231D01*
X176434372Y-67805841D01*
X176652821Y-67872107D01*
X176823071Y-67888875D01*
X176823080Y-67888875D01*
X176879999Y-67894481D01*
X176936918Y-67888875D01*
X177300395Y-67888875D01*
X177286798Y-67914313D01*
X177228702Y-68105829D01*
X177209085Y-68305000D01*
X177209085Y-68955000D01*
X177228702Y-69154171D01*
X177286798Y-69345687D01*
X177381140Y-69522190D01*
X177508104Y-69676896D01*
X177662810Y-69803860D01*
X177780611Y-69866825D01*
X177791769Y-69887701D01*
X177900297Y-70019943D01*
X177900300Y-70019946D01*
X177936588Y-70064163D01*
X177980805Y-70100451D01*
X178016125Y-70135771D01*
X178016126Y-72624085D01*
X177650000Y-72624085D01*
X177450829Y-72643702D01*
X177259313Y-72701798D01*
X177082810Y-72796140D01*
X176928104Y-72923104D01*
X176801140Y-73077810D01*
X176706798Y-73254313D01*
X176648702Y-73445829D01*
X176629085Y-73645000D01*
X176629085Y-75095000D01*
X176648702Y-75294171D01*
X176706798Y-75485687D01*
X176801140Y-75662190D01*
X176928104Y-75816896D01*
X177082810Y-75943860D01*
X177259313Y-76038202D01*
X177450829Y-76096298D01*
X177650000Y-76115915D01*
X178100000Y-76115915D01*
X178200000Y-76106066D01*
X178300000Y-76115915D01*
X178750000Y-76115915D01*
X178850000Y-76106066D01*
X178950000Y-76115915D01*
X179400000Y-76115915D01*
X179500000Y-76106066D01*
X179600000Y-76115915D01*
X179966126Y-76115915D01*
X179966125Y-78524085D01*
X179600000Y-78524085D01*
X179500000Y-78533934D01*
X179400000Y-78524085D01*
X178950000Y-78524085D01*
X178850000Y-78533934D01*
X178750000Y-78524085D01*
X178300000Y-78524085D01*
X178200000Y-78533934D01*
X178100000Y-78524085D01*
X177650000Y-78524085D01*
X177450829Y-78543702D01*
X177259313Y-78601798D01*
X177082810Y-78696140D01*
X176928104Y-78823104D01*
X176801140Y-78977810D01*
X176706798Y-79154313D01*
X176648702Y-79345829D01*
X176629085Y-79545000D01*
X176629085Y-80995000D01*
X176648702Y-81194171D01*
X176706798Y-81385687D01*
X176801140Y-81562190D01*
X176928104Y-81716896D01*
X177082810Y-81843860D01*
X177259313Y-81938202D01*
X177450829Y-81996298D01*
X177650000Y-82015915D01*
X178100000Y-82015915D01*
X178200000Y-82006066D01*
X178300000Y-82015915D01*
X178750000Y-82015915D01*
X178850000Y-82006066D01*
X178950000Y-82015915D01*
X179400000Y-82015915D01*
X179500000Y-82006066D01*
X179600000Y-82015915D01*
X179796824Y-82015915D01*
X179823214Y-82283860D01*
X179903096Y-82547195D01*
X180032817Y-82789887D01*
X180207392Y-83002608D01*
X180420113Y-83177183D01*
X180662805Y-83306904D01*
X180926140Y-83386786D01*
X181131375Y-83407000D01*
X188119001Y-83407000D01*
X188119000Y-88077579D01*
X188111012Y-88158680D01*
X188119000Y-88239781D01*
X188119000Y-88239783D01*
X188142889Y-88482332D01*
X188237295Y-88793546D01*
X188390602Y-89080363D01*
X188596918Y-89331762D01*
X188659921Y-89383467D01*
X191634146Y-92357692D01*
X191565695Y-92426143D01*
X191290350Y-92838227D01*
X191100688Y-93296110D01*
X191004000Y-93782196D01*
X191004000Y-94277804D01*
X191100688Y-94763890D01*
X191290350Y-95221773D01*
X191565695Y-95633857D01*
X191869001Y-95937163D01*
X191869000Y-97896133D01*
X187276134Y-102489000D01*
X176792546Y-102489000D01*
X170005854Y-95702308D01*
X170074305Y-95633857D01*
X170349650Y-95221773D01*
X170539312Y-94763890D01*
X170636000Y-94277804D01*
X170636000Y-93782196D01*
X170539312Y-93296110D01*
X170349650Y-92838227D01*
X170074305Y-92426143D01*
X169723857Y-92075695D01*
X169311773Y-91800350D01*
X168853890Y-91610688D01*
X168367804Y-91514000D01*
X167872196Y-91514000D01*
X167386110Y-91610688D01*
X166928227Y-91800350D01*
X166516143Y-92075695D01*
X166165695Y-92426143D01*
X165890350Y-92838227D01*
X165700688Y-93296110D01*
X165604000Y-93782196D01*
X165604000Y-94277804D01*
X165700688Y-94763890D01*
X165890350Y-95221773D01*
X166165695Y-95633857D01*
X166469001Y-95937163D01*
X166469001Y-96070210D01*
X166461012Y-96151320D01*
X166492890Y-96474972D01*
X166587296Y-96786187D01*
X166726862Y-97047296D01*
X166740603Y-97073004D01*
X166946919Y-97324402D01*
X167009916Y-97376102D01*
X174883893Y-105250079D01*
X174935598Y-105313082D01*
X175186996Y-105519398D01*
X175473812Y-105672705D01*
X175546246Y-105694677D01*
X175785027Y-105767111D01*
X176027576Y-105791000D01*
X176027579Y-105791000D01*
X176108680Y-105798988D01*
X176189781Y-105791000D01*
X187878899Y-105791000D01*
X187960000Y-105798988D01*
X188041101Y-105791000D01*
X188041104Y-105791000D01*
X188283653Y-105767111D01*
X188594867Y-105672705D01*
X188881684Y-105519398D01*
X189133082Y-105313082D01*
X189184787Y-105250079D01*
X194630086Y-99804781D01*
X194693082Y-99753082D01*
X194753583Y-99679362D01*
X194899398Y-99501685D01*
X195052704Y-99214868D01*
X195052705Y-99214867D01*
X195147111Y-98903653D01*
X195171000Y-98661104D01*
X195171000Y-98661102D01*
X195178988Y-98580001D01*
X195171000Y-98498900D01*
X195171000Y-95937162D01*
X195474305Y-95633857D01*
X195749650Y-95221773D01*
X195939312Y-94763890D01*
X196036000Y-94277804D01*
X196036000Y-93782196D01*
X195939312Y-93296110D01*
X195749650Y-92838227D01*
X195474305Y-92426143D01*
X195171000Y-92122838D01*
X195171000Y-91989781D01*
X195178988Y-91908680D01*
X195168318Y-91800350D01*
X195147111Y-91585027D01*
X195052705Y-91273813D01*
X194899398Y-90986996D01*
X194693082Y-90735598D01*
X194630085Y-90683898D01*
X191421000Y-87474814D01*
X191421000Y-83254626D01*
X191565887Y-83177183D01*
X191778608Y-83002608D01*
X191822364Y-82949291D01*
X192298353Y-82473302D01*
X193217301Y-81554355D01*
X193270607Y-81510608D01*
X193445183Y-81297887D01*
X193574904Y-81055195D01*
X193654786Y-80791860D01*
X193675000Y-80586625D01*
X193675000Y-80586624D01*
X193681759Y-80518000D01*
X193675000Y-80449375D01*
X193675000Y-78695625D01*
X193681759Y-78627000D01*
X193673555Y-78543702D01*
X193654915Y-78354450D01*
X193654915Y-78243000D01*
X193635298Y-78043829D01*
X193577202Y-77852313D01*
X193482860Y-77675810D01*
X193355896Y-77521104D01*
X193201190Y-77394140D01*
X193024687Y-77299798D01*
X192833171Y-77241702D01*
X192634000Y-77222085D01*
X192394407Y-77222085D01*
X192332625Y-77216000D01*
X192264000Y-77209241D01*
X192195375Y-77216000D01*
X191365375Y-77216000D01*
X191303593Y-77222085D01*
X190642875Y-77222085D01*
X190642875Y-76193915D01*
X192634000Y-76193915D01*
X192833171Y-76174298D01*
X193024687Y-76116202D01*
X193201190Y-76021860D01*
X193355896Y-75894896D01*
X193482860Y-75740190D01*
X193577202Y-75563687D01*
X193635298Y-75372171D01*
X193654915Y-75173000D01*
X193654915Y-74433000D01*
X193635298Y-74233829D01*
X193577202Y-74042313D01*
X193482860Y-73865810D01*
X193355896Y-73711104D01*
X193201190Y-73584140D01*
X193024687Y-73489798D01*
X192833171Y-73431702D01*
X192634000Y-73412085D01*
X190642875Y-73412085D01*
X190642875Y-72319929D01*
X190648482Y-72263000D01*
X190626107Y-72035821D01*
X190559841Y-71817372D01*
X190452231Y-71616048D01*
X190343703Y-71483806D01*
X190343701Y-71483804D01*
X190307413Y-71439587D01*
X190263197Y-71403300D01*
X188692705Y-69832809D01*
X188656413Y-69788587D01*
X188479952Y-69643769D01*
X188278628Y-69536159D01*
X188060179Y-69469893D01*
X187889929Y-69453125D01*
X187889919Y-69453125D01*
X187833000Y-69447519D01*
X187776081Y-69453125D01*
X183627022Y-69453125D01*
X183012772Y-68838875D01*
X183535081Y-68838875D01*
X183592000Y-68844481D01*
X183648919Y-68838875D01*
X183648929Y-68838875D01*
X183819179Y-68822107D01*
X184037628Y-68755841D01*
X184238952Y-68648231D01*
X184281601Y-68613230D01*
X184360446Y-68605464D01*
X184579633Y-68538975D01*
X184719032Y-68464465D01*
X184830367Y-68523975D01*
X185049554Y-68590464D01*
X185277500Y-68612915D01*
X185572500Y-68612915D01*
X185800446Y-68590464D01*
X185910000Y-68557231D01*
X186019554Y-68590464D01*
X186247500Y-68612915D01*
X186542500Y-68612915D01*
X186770446Y-68590464D01*
X186989633Y-68523975D01*
X186995646Y-68520761D01*
X187020367Y-68533975D01*
X187239554Y-68600464D01*
X187467500Y-68622915D01*
X187812500Y-68622915D01*
X188040446Y-68600464D01*
X188259633Y-68533975D01*
X188461637Y-68426002D01*
X188638694Y-68280694D01*
X188784002Y-68103637D01*
X188891975Y-67901633D01*
X188958464Y-67682446D01*
X188980915Y-67454500D01*
X188980915Y-67159500D01*
X188958464Y-66931554D01*
X188891975Y-66712367D01*
X188784002Y-66510363D01*
X188638694Y-66333306D01*
X188461637Y-66187998D01*
X188259633Y-66080025D01*
X188040446Y-66013536D01*
X187812500Y-65991085D01*
X187467500Y-65991085D01*
X187239554Y-66013536D01*
X187072372Y-66064250D01*
X186989633Y-66020025D01*
X186770446Y-65953536D01*
X186542500Y-65931085D01*
X186247500Y-65931085D01*
X186019554Y-65953536D01*
X185910000Y-65986769D01*
X185800446Y-65953536D01*
X185572500Y-65931085D01*
X185277500Y-65931085D01*
X185049554Y-65953536D01*
X184830367Y-66020025D01*
X184656189Y-66113125D01*
X184632205Y-66113125D01*
X184579633Y-66085025D01*
X184360446Y-66018536D01*
X184132500Y-65996085D01*
X183787500Y-65996085D01*
X183559554Y-66018536D01*
X183340367Y-66085025D01*
X183138363Y-66192998D01*
X182961306Y-66338306D01*
X182815998Y-66515363D01*
X182812918Y-66521125D01*
X182510915Y-66521125D01*
X182510915Y-66405000D01*
X182491298Y-66205829D01*
X182433202Y-66014313D01*
X182338860Y-65837810D01*
X182211896Y-65683104D01*
X182068875Y-65565730D01*
X182068875Y-64839418D01*
X182074481Y-64782499D01*
X182068875Y-64725580D01*
X182068875Y-64725571D01*
X182052107Y-64555321D01*
X182005915Y-64403047D01*
X182005915Y-64163750D01*
X181982095Y-63921903D01*
X181911551Y-63689351D01*
X181796994Y-63475029D01*
X181642826Y-63287174D01*
X181454971Y-63133006D01*
X181240649Y-63018449D01*
X181008097Y-62947905D01*
X180766250Y-62924085D01*
X180328750Y-62924085D01*
X180086903Y-62947905D01*
X179854351Y-63018449D01*
X179640029Y-63133006D01*
X179452174Y-63287174D01*
X179298006Y-63475029D01*
X179183449Y-63689351D01*
X179112905Y-63921903D01*
X179089085Y-64163750D01*
X179089085Y-64676250D01*
X179112905Y-64918097D01*
X179183449Y-65150649D01*
X179298006Y-65364971D01*
X179315776Y-65386624D01*
X179290000Y-65384085D01*
X178230000Y-65384085D01*
X178030829Y-65403702D01*
X177839313Y-65461798D01*
X177662810Y-65556140D01*
X177644551Y-65571125D01*
X177360021Y-65571125D01*
X177289706Y-65500810D01*
X177253413Y-65456587D01*
X177076952Y-65311769D01*
X176875628Y-65204159D01*
X176657179Y-65137893D01*
X176486929Y-65121125D01*
X176486919Y-65121125D01*
X176430000Y-65115519D01*
X176373081Y-65121125D01*
X175655072Y-65121125D01*
X175636393Y-65102446D01*
X175388095Y-64936538D01*
X175112201Y-64822259D01*
X174819313Y-64764000D01*
X174520687Y-64764000D01*
X174227799Y-64822259D01*
X173951905Y-64936538D01*
X173703607Y-65102446D01*
X173492446Y-65313607D01*
X173326538Y-65561905D01*
X173212259Y-65837799D01*
X173188616Y-65956660D01*
X173171298Y-65780829D01*
X173113202Y-65589313D01*
X173018860Y-65412810D01*
X172891896Y-65258104D01*
X172737190Y-65131140D01*
X172560687Y-65036798D01*
X172369171Y-64978702D01*
X172170000Y-64959085D01*
X166170000Y-64959085D01*
X165970829Y-64978702D01*
X165779313Y-65036798D01*
X165602810Y-65131140D01*
X165448104Y-65258104D01*
X165321140Y-65412810D01*
X165226798Y-65589313D01*
X165168702Y-65780829D01*
X165149085Y-65980000D01*
X163601000Y-65980000D01*
X163601000Y-62001000D01*
X197079001Y-62001000D01*
X197079000Y-107959000D01*
M02*
