G04 #@! TF.GenerationSoftware,KiCad,Pcbnew,(5.1.2)-2*
G04 #@! TF.CreationDate,2019-10-10T00:04:00-05:00*
G04 #@! TF.ProjectId,MillingTest,4d696c6c-696e-4675-9465-73742e6b6963,rev?*
G04 #@! TF.SameCoordinates,Original*
G04 #@! TF.FileFunction,Soldermask,Top*
G04 #@! TF.FilePolarity,Negative*
%FSLAX46Y46*%
G04 Gerber Fmt 4.6, Leading zero omitted, Abs format (unit mm)*
G04 Created by KiCad (PCBNEW (5.1.2)-2) date 2019-10-10 00:04:00*
%MOMM*%
%LPD*%
G04 APERTURE LIST*
%ADD10C,0.100000*%
G04 APERTURE END LIST*
D10*
G36*
X184871000Y-98081000D02*
G01*
X176769000Y-98081000D01*
X176769000Y-89979000D01*
X184871000Y-89979000D01*
X184871000Y-98081000D01*
X184871000Y-98081000D01*
G37*
G36*
X193822585Y-92508802D02*
G01*
X193972410Y-92538604D01*
X194254674Y-92655521D01*
X194508705Y-92825259D01*
X194724741Y-93041295D01*
X194894479Y-93295326D01*
X195011396Y-93577590D01*
X195071000Y-93877240D01*
X195071000Y-94182760D01*
X195011396Y-94482410D01*
X194894479Y-94764674D01*
X194724741Y-95018705D01*
X194508705Y-95234741D01*
X194254674Y-95404479D01*
X193972410Y-95521396D01*
X193822585Y-95551198D01*
X193672761Y-95581000D01*
X193367239Y-95581000D01*
X193217415Y-95551198D01*
X193067590Y-95521396D01*
X192785326Y-95404479D01*
X192531295Y-95234741D01*
X192315259Y-95018705D01*
X192145521Y-94764674D01*
X192028604Y-94482410D01*
X191969000Y-94182760D01*
X191969000Y-93877240D01*
X192028604Y-93577590D01*
X192145521Y-93295326D01*
X192315259Y-93041295D01*
X192531295Y-92825259D01*
X192785326Y-92655521D01*
X193067590Y-92538604D01*
X193217415Y-92508802D01*
X193367239Y-92479000D01*
X193672761Y-92479000D01*
X193822585Y-92508802D01*
X193822585Y-92508802D01*
G37*
G36*
X168422585Y-92508802D02*
G01*
X168572410Y-92538604D01*
X168854674Y-92655521D01*
X169108705Y-92825259D01*
X169324741Y-93041295D01*
X169494479Y-93295326D01*
X169611396Y-93577590D01*
X169671000Y-93877240D01*
X169671000Y-94182760D01*
X169611396Y-94482410D01*
X169494479Y-94764674D01*
X169324741Y-95018705D01*
X169108705Y-95234741D01*
X168854674Y-95404479D01*
X168572410Y-95521396D01*
X168422585Y-95551198D01*
X168272761Y-95581000D01*
X167967239Y-95581000D01*
X167817415Y-95551198D01*
X167667590Y-95521396D01*
X167385326Y-95404479D01*
X167131295Y-95234741D01*
X166915259Y-95018705D01*
X166745521Y-94764674D01*
X166628604Y-94482410D01*
X166569000Y-94182760D01*
X166569000Y-93877240D01*
X166628604Y-93577590D01*
X166745521Y-93295326D01*
X166915259Y-93041295D01*
X167131295Y-92825259D01*
X167385326Y-92655521D01*
X167667590Y-92538604D01*
X167817415Y-92508802D01*
X167967239Y-92479000D01*
X168272761Y-92479000D01*
X168422585Y-92508802D01*
X168422585Y-92508802D01*
G37*
G36*
X181456938Y-81641716D02*
G01*
X181477557Y-81647971D01*
X181496553Y-81658124D01*
X181513208Y-81671792D01*
X181526876Y-81688447D01*
X181537029Y-81707443D01*
X181543284Y-81728062D01*
X181546000Y-81755640D01*
X181546000Y-82264360D01*
X181543284Y-82291938D01*
X181537029Y-82312557D01*
X181526876Y-82331553D01*
X181513208Y-82348208D01*
X181496553Y-82361876D01*
X181477557Y-82372029D01*
X181456938Y-82378284D01*
X181429360Y-82381000D01*
X180970640Y-82381000D01*
X180943062Y-82378284D01*
X180922443Y-82372029D01*
X180903447Y-82361876D01*
X180886792Y-82348208D01*
X180873124Y-82331553D01*
X180862971Y-82312557D01*
X180856716Y-82291938D01*
X180854000Y-82264360D01*
X180854000Y-81755640D01*
X180856716Y-81728062D01*
X180862971Y-81707443D01*
X180873124Y-81688447D01*
X180886792Y-81671792D01*
X180903447Y-81658124D01*
X180922443Y-81647971D01*
X180943062Y-81641716D01*
X180970640Y-81639000D01*
X181429360Y-81639000D01*
X181456938Y-81641716D01*
X181456938Y-81641716D01*
G37*
G36*
X180486938Y-81641716D02*
G01*
X180507557Y-81647971D01*
X180526553Y-81658124D01*
X180543208Y-81671792D01*
X180556876Y-81688447D01*
X180567029Y-81707443D01*
X180573284Y-81728062D01*
X180576000Y-81755640D01*
X180576000Y-82264360D01*
X180573284Y-82291938D01*
X180567029Y-82312557D01*
X180556876Y-82331553D01*
X180543208Y-82348208D01*
X180526553Y-82361876D01*
X180507557Y-82372029D01*
X180486938Y-82378284D01*
X180459360Y-82381000D01*
X180000640Y-82381000D01*
X179973062Y-82378284D01*
X179952443Y-82372029D01*
X179933447Y-82361876D01*
X179916792Y-82348208D01*
X179903124Y-82331553D01*
X179892971Y-82312557D01*
X179886716Y-82291938D01*
X179884000Y-82264360D01*
X179884000Y-81755640D01*
X179886716Y-81728062D01*
X179892971Y-81707443D01*
X179903124Y-81688447D01*
X179916792Y-81671792D01*
X179933447Y-81658124D01*
X179952443Y-81647971D01*
X179973062Y-81641716D01*
X180000640Y-81639000D01*
X180459360Y-81639000D01*
X180486938Y-81641716D01*
X180486938Y-81641716D01*
G37*
G36*
X184001000Y-81046000D02*
G01*
X177599000Y-81046000D01*
X177599000Y-79494000D01*
X184001000Y-79494000D01*
X184001000Y-81046000D01*
X184001000Y-81046000D01*
G37*
G36*
X192685000Y-79034000D02*
G01*
X190183000Y-79034000D01*
X190183000Y-78192000D01*
X192685000Y-78192000D01*
X192685000Y-79034000D01*
X192685000Y-79034000D01*
G37*
G36*
X188785000Y-79034000D02*
G01*
X186283000Y-79034000D01*
X186283000Y-78192000D01*
X188785000Y-78192000D01*
X188785000Y-79034000D01*
X188785000Y-79034000D01*
G37*
G36*
X192685000Y-77764000D02*
G01*
X190183000Y-77764000D01*
X190183000Y-76922000D01*
X192685000Y-76922000D01*
X192685000Y-77764000D01*
X192685000Y-77764000D01*
G37*
G36*
X188785000Y-77764000D02*
G01*
X186283000Y-77764000D01*
X186283000Y-76922000D01*
X188785000Y-76922000D01*
X188785000Y-77764000D01*
X188785000Y-77764000D01*
G37*
G36*
X188785000Y-76494000D02*
G01*
X186283000Y-76494000D01*
X186283000Y-75652000D01*
X188785000Y-75652000D01*
X188785000Y-76494000D01*
X188785000Y-76494000D01*
G37*
G36*
X192685000Y-76494000D02*
G01*
X190183000Y-76494000D01*
X190183000Y-75652000D01*
X192685000Y-75652000D01*
X192685000Y-76494000D01*
X192685000Y-76494000D01*
G37*
G36*
X188785000Y-75224000D02*
G01*
X186283000Y-75224000D01*
X186283000Y-74382000D01*
X188785000Y-74382000D01*
X188785000Y-75224000D01*
X188785000Y-75224000D01*
G37*
G36*
X192685000Y-75224000D02*
G01*
X190183000Y-75224000D01*
X190183000Y-74382000D01*
X192685000Y-74382000D01*
X192685000Y-75224000D01*
X192685000Y-75224000D01*
G37*
G36*
X184001000Y-75146000D02*
G01*
X177599000Y-75146000D01*
X177599000Y-73594000D01*
X184001000Y-73594000D01*
X184001000Y-75146000D01*
X184001000Y-75146000D01*
G37*
G36*
X192685000Y-73954000D02*
G01*
X190183000Y-73954000D01*
X190183000Y-73112000D01*
X192685000Y-73112000D01*
X192685000Y-73954000D01*
X192685000Y-73954000D01*
G37*
G36*
X188785000Y-73954000D02*
G01*
X186283000Y-73954000D01*
X186283000Y-73112000D01*
X188785000Y-73112000D01*
X188785000Y-73954000D01*
X188785000Y-73954000D01*
G37*
G36*
X181541000Y-69006000D02*
G01*
X180379000Y-69006000D01*
X180379000Y-66354000D01*
X181541000Y-66354000D01*
X181541000Y-69006000D01*
X181541000Y-69006000D01*
G37*
G36*
X179341000Y-69006000D02*
G01*
X178179000Y-69006000D01*
X178179000Y-66354000D01*
X179341000Y-66354000D01*
X179341000Y-69006000D01*
X179341000Y-69006000D01*
G37*
G36*
X174830721Y-67650174D02*
G01*
X174930995Y-67691709D01*
X174930996Y-67691710D01*
X175021242Y-67752010D01*
X175097990Y-67828758D01*
X175097991Y-67828760D01*
X175158291Y-67919005D01*
X175199826Y-68019279D01*
X175221000Y-68125730D01*
X175221000Y-68234270D01*
X175199826Y-68340721D01*
X175158291Y-68440995D01*
X175158290Y-68440996D01*
X175097990Y-68531242D01*
X175021242Y-68607990D01*
X174991295Y-68628000D01*
X174930995Y-68668291D01*
X174830721Y-68709826D01*
X174724270Y-68731000D01*
X174615730Y-68731000D01*
X174509279Y-68709826D01*
X174409005Y-68668291D01*
X174348705Y-68628000D01*
X174318758Y-68607990D01*
X174242010Y-68531242D01*
X174181710Y-68440996D01*
X174181709Y-68440995D01*
X174140174Y-68340721D01*
X174119000Y-68234270D01*
X174119000Y-68125730D01*
X174140174Y-68019279D01*
X174181709Y-67919005D01*
X174242009Y-67828760D01*
X174242010Y-67828758D01*
X174318758Y-67752010D01*
X174409004Y-67691710D01*
X174409005Y-67691709D01*
X174509279Y-67650174D01*
X174615730Y-67629000D01*
X174724270Y-67629000D01*
X174830721Y-67650174D01*
X174830721Y-67650174D01*
G37*
G36*
X184241938Y-67938716D02*
G01*
X184262557Y-67944971D01*
X184281553Y-67955124D01*
X184298208Y-67968792D01*
X184311876Y-67985447D01*
X184322029Y-68004443D01*
X184328284Y-68025062D01*
X184331000Y-68052640D01*
X184331000Y-68511360D01*
X184328284Y-68538938D01*
X184322029Y-68559557D01*
X184311876Y-68578553D01*
X184298208Y-68595208D01*
X184281553Y-68608876D01*
X184262557Y-68619029D01*
X184241938Y-68625284D01*
X184214360Y-68628000D01*
X183705640Y-68628000D01*
X183678062Y-68625284D01*
X183657443Y-68619029D01*
X183638447Y-68608876D01*
X183621792Y-68595208D01*
X183608124Y-68578553D01*
X183597971Y-68559557D01*
X183591716Y-68538938D01*
X183589000Y-68511360D01*
X183589000Y-68052640D01*
X183591716Y-68025062D01*
X183597971Y-68004443D01*
X183608124Y-67985447D01*
X183621792Y-67968792D01*
X183638447Y-67955124D01*
X183657443Y-67944971D01*
X183678062Y-67938716D01*
X183705640Y-67936000D01*
X184214360Y-67936000D01*
X184241938Y-67938716D01*
X184241938Y-67938716D01*
G37*
G36*
X187921938Y-67933716D02*
G01*
X187942557Y-67939971D01*
X187961553Y-67950124D01*
X187978208Y-67963792D01*
X187991876Y-67980447D01*
X188002029Y-67999443D01*
X188008284Y-68020062D01*
X188011000Y-68047640D01*
X188011000Y-68506360D01*
X188008284Y-68533938D01*
X188002029Y-68554557D01*
X187991876Y-68573553D01*
X187978208Y-68590208D01*
X187961553Y-68603876D01*
X187942557Y-68614029D01*
X187921938Y-68620284D01*
X187894360Y-68623000D01*
X187385640Y-68623000D01*
X187358062Y-68620284D01*
X187337443Y-68614029D01*
X187318447Y-68603876D01*
X187301792Y-68590208D01*
X187288124Y-68573553D01*
X187277971Y-68554557D01*
X187271716Y-68533938D01*
X187269000Y-68506360D01*
X187269000Y-68047640D01*
X187271716Y-68020062D01*
X187277971Y-67999443D01*
X187288124Y-67980447D01*
X187301792Y-67963792D01*
X187318447Y-67950124D01*
X187337443Y-67939971D01*
X187358062Y-67933716D01*
X187385640Y-67931000D01*
X187894360Y-67931000D01*
X187921938Y-67933716D01*
X187921938Y-67933716D01*
G37*
G36*
X172221000Y-68531000D02*
G01*
X166119000Y-68531000D01*
X166119000Y-65929000D01*
X172221000Y-65929000D01*
X172221000Y-68531000D01*
X172221000Y-68531000D01*
G37*
G36*
X184241938Y-66968716D02*
G01*
X184262557Y-66974971D01*
X184281553Y-66985124D01*
X184298208Y-66998792D01*
X184311876Y-67015447D01*
X184322029Y-67034443D01*
X184328284Y-67055062D01*
X184331000Y-67082640D01*
X184331000Y-67541360D01*
X184328284Y-67568938D01*
X184322029Y-67589557D01*
X184311876Y-67608553D01*
X184298208Y-67625208D01*
X184281553Y-67638876D01*
X184262557Y-67649029D01*
X184241938Y-67655284D01*
X184214360Y-67658000D01*
X183705640Y-67658000D01*
X183678062Y-67655284D01*
X183657443Y-67649029D01*
X183638447Y-67638876D01*
X183621792Y-67625208D01*
X183608124Y-67608553D01*
X183597971Y-67589557D01*
X183591716Y-67568938D01*
X183589000Y-67541360D01*
X183589000Y-67082640D01*
X183591716Y-67055062D01*
X183597971Y-67034443D01*
X183608124Y-67015447D01*
X183621792Y-66998792D01*
X183638447Y-66985124D01*
X183657443Y-66974971D01*
X183678062Y-66968716D01*
X183705640Y-66966000D01*
X184214360Y-66966000D01*
X184241938Y-66968716D01*
X184241938Y-66968716D01*
G37*
G36*
X187921938Y-66963716D02*
G01*
X187942557Y-66969971D01*
X187961553Y-66980124D01*
X187978208Y-66993792D01*
X187991876Y-67010447D01*
X188002029Y-67029443D01*
X188008284Y-67050062D01*
X188011000Y-67077640D01*
X188011000Y-67536360D01*
X188008284Y-67563938D01*
X188002029Y-67584557D01*
X187991876Y-67603553D01*
X187978208Y-67620208D01*
X187961553Y-67633876D01*
X187942557Y-67644029D01*
X187921938Y-67650284D01*
X187894360Y-67653000D01*
X187385640Y-67653000D01*
X187358062Y-67650284D01*
X187337443Y-67644029D01*
X187318447Y-67633876D01*
X187301792Y-67620208D01*
X187288124Y-67603553D01*
X187277971Y-67584557D01*
X187271716Y-67563938D01*
X187269000Y-67536360D01*
X187269000Y-67077640D01*
X187271716Y-67050062D01*
X187277971Y-67029443D01*
X187288124Y-67010447D01*
X187301792Y-66993792D01*
X187318447Y-66980124D01*
X187337443Y-66969971D01*
X187358062Y-66963716D01*
X187385640Y-66961000D01*
X187894360Y-66961000D01*
X187921938Y-66963716D01*
X187921938Y-66963716D01*
G37*
G36*
X186651938Y-66903716D02*
G01*
X186672557Y-66909971D01*
X186691553Y-66920124D01*
X186708208Y-66933792D01*
X186721876Y-66950447D01*
X186732029Y-66969443D01*
X186738284Y-66990062D01*
X186741000Y-67017640D01*
X186741000Y-67526360D01*
X186738284Y-67553938D01*
X186732029Y-67574557D01*
X186721876Y-67593553D01*
X186708208Y-67610208D01*
X186691553Y-67623876D01*
X186672557Y-67634029D01*
X186651938Y-67640284D01*
X186624360Y-67643000D01*
X186165640Y-67643000D01*
X186138062Y-67640284D01*
X186117443Y-67634029D01*
X186098447Y-67623876D01*
X186081792Y-67610208D01*
X186068124Y-67593553D01*
X186057971Y-67574557D01*
X186051716Y-67553938D01*
X186049000Y-67526360D01*
X186049000Y-67017640D01*
X186051716Y-66990062D01*
X186057971Y-66969443D01*
X186068124Y-66950447D01*
X186081792Y-66933792D01*
X186098447Y-66920124D01*
X186117443Y-66909971D01*
X186138062Y-66903716D01*
X186165640Y-66901000D01*
X186624360Y-66901000D01*
X186651938Y-66903716D01*
X186651938Y-66903716D01*
G37*
G36*
X185681938Y-66903716D02*
G01*
X185702557Y-66909971D01*
X185721553Y-66920124D01*
X185738208Y-66933792D01*
X185751876Y-66950447D01*
X185762029Y-66969443D01*
X185768284Y-66990062D01*
X185771000Y-67017640D01*
X185771000Y-67526360D01*
X185768284Y-67553938D01*
X185762029Y-67574557D01*
X185751876Y-67593553D01*
X185738208Y-67610208D01*
X185721553Y-67623876D01*
X185702557Y-67634029D01*
X185681938Y-67640284D01*
X185654360Y-67643000D01*
X185195640Y-67643000D01*
X185168062Y-67640284D01*
X185147443Y-67634029D01*
X185128447Y-67623876D01*
X185111792Y-67610208D01*
X185098124Y-67593553D01*
X185087971Y-67574557D01*
X185081716Y-67553938D01*
X185079000Y-67526360D01*
X185079000Y-67017640D01*
X185081716Y-66990062D01*
X185087971Y-66969443D01*
X185098124Y-66950447D01*
X185111792Y-66933792D01*
X185128447Y-66920124D01*
X185147443Y-66909971D01*
X185168062Y-66903716D01*
X185195640Y-66901000D01*
X185654360Y-66901000D01*
X185681938Y-66903716D01*
X185681938Y-66903716D01*
G37*
G36*
X174830721Y-65750174D02*
G01*
X174930995Y-65791709D01*
X174930996Y-65791710D01*
X175021242Y-65852010D01*
X175097990Y-65928758D01*
X175128345Y-65974188D01*
X175158291Y-66019005D01*
X175199826Y-66119279D01*
X175221000Y-66225730D01*
X175221000Y-66334270D01*
X175199826Y-66440721D01*
X175158291Y-66540995D01*
X175158290Y-66540996D01*
X175097990Y-66631242D01*
X175021242Y-66707990D01*
X174975812Y-66738345D01*
X174930995Y-66768291D01*
X174830721Y-66809826D01*
X174724270Y-66831000D01*
X174615730Y-66831000D01*
X174509279Y-66809826D01*
X174409005Y-66768291D01*
X174364188Y-66738345D01*
X174318758Y-66707990D01*
X174242010Y-66631242D01*
X174181710Y-66540996D01*
X174181709Y-66540995D01*
X174140174Y-66440721D01*
X174119000Y-66334270D01*
X174119000Y-66225730D01*
X174140174Y-66119279D01*
X174181709Y-66019005D01*
X174211655Y-65974188D01*
X174242010Y-65928758D01*
X174318758Y-65852010D01*
X174409004Y-65791710D01*
X174409005Y-65791709D01*
X174509279Y-65750174D01*
X174615730Y-65729000D01*
X174724270Y-65729000D01*
X174830721Y-65750174D01*
X174830721Y-65750174D01*
G37*
G36*
X179314591Y-63898085D02*
G01*
X179348569Y-63908393D01*
X179379890Y-63925134D01*
X179407339Y-63947661D01*
X179429866Y-63975110D01*
X179446607Y-64006431D01*
X179456915Y-64040409D01*
X179461000Y-64081890D01*
X179461000Y-64758110D01*
X179456915Y-64799591D01*
X179446607Y-64833569D01*
X179429866Y-64864890D01*
X179407339Y-64892339D01*
X179379890Y-64914866D01*
X179348569Y-64931607D01*
X179314591Y-64941915D01*
X179273110Y-64946000D01*
X178671890Y-64946000D01*
X178630409Y-64941915D01*
X178596431Y-64931607D01*
X178565110Y-64914866D01*
X178537661Y-64892339D01*
X178515134Y-64864890D01*
X178498393Y-64833569D01*
X178488085Y-64799591D01*
X178484000Y-64758110D01*
X178484000Y-64081890D01*
X178488085Y-64040409D01*
X178498393Y-64006431D01*
X178515134Y-63975110D01*
X178537661Y-63947661D01*
X178565110Y-63925134D01*
X178596431Y-63908393D01*
X178630409Y-63898085D01*
X178671890Y-63894000D01*
X179273110Y-63894000D01*
X179314591Y-63898085D01*
X179314591Y-63898085D01*
G37*
G36*
X180889591Y-63898085D02*
G01*
X180923569Y-63908393D01*
X180954890Y-63925134D01*
X180982339Y-63947661D01*
X181004866Y-63975110D01*
X181021607Y-64006431D01*
X181031915Y-64040409D01*
X181036000Y-64081890D01*
X181036000Y-64758110D01*
X181031915Y-64799591D01*
X181021607Y-64833569D01*
X181004866Y-64864890D01*
X180982339Y-64892339D01*
X180954890Y-64914866D01*
X180923569Y-64931607D01*
X180889591Y-64941915D01*
X180848110Y-64946000D01*
X180246890Y-64946000D01*
X180205409Y-64941915D01*
X180171431Y-64931607D01*
X180140110Y-64914866D01*
X180112661Y-64892339D01*
X180090134Y-64864890D01*
X180073393Y-64833569D01*
X180063085Y-64799591D01*
X180059000Y-64758110D01*
X180059000Y-64081890D01*
X180063085Y-64040409D01*
X180073393Y-64006431D01*
X180090134Y-63975110D01*
X180112661Y-63947661D01*
X180140110Y-63925134D01*
X180171431Y-63908393D01*
X180205409Y-63898085D01*
X180246890Y-63894000D01*
X180848110Y-63894000D01*
X180889591Y-63898085D01*
X180889591Y-63898085D01*
G37*
M02*
