G04 #@! TF.GenerationSoftware,KiCad,Pcbnew,(5.1.2)-2*
G04 #@! TF.CreationDate,2019-10-10T00:04:00-05:00*
G04 #@! TF.ProjectId,MillingTest,4d696c6c-696e-4675-9465-73742e6b6963,rev?*
G04 #@! TF.SameCoordinates,Original*
G04 #@! TF.FileFunction,Paste,Top*
G04 #@! TF.FilePolarity,Positive*
%FSLAX46Y46*%
G04 Gerber Fmt 4.6, Leading zero omitted, Abs format (unit mm)*
G04 Created by KiCad (PCBNEW (5.1.2)-2) date 2019-10-10 00:04:00*
%MOMM*%
%LPD*%
G04 APERTURE LIST*
%ADD10R,2.400000X0.740000*%
%ADD11C,0.100000*%
%ADD12C,0.590000*%
%ADD13C,0.875000*%
%ADD14R,6.000000X2.500000*%
%ADD15R,0.450000X1.450000*%
%ADD16R,1.060000X0.650000*%
G04 APERTURE END LIST*
D10*
X187534000Y-73533000D03*
X191434000Y-73533000D03*
X187534000Y-74803000D03*
X191434000Y-74803000D03*
X187534000Y-76073000D03*
X191434000Y-76073000D03*
X187534000Y-77343000D03*
X191434000Y-77343000D03*
X187534000Y-78613000D03*
X191434000Y-78613000D03*
D11*
G36*
X186556958Y-66952710D02*
G01*
X186571276Y-66954834D01*
X186585317Y-66958351D01*
X186598946Y-66963228D01*
X186612031Y-66969417D01*
X186624447Y-66976858D01*
X186636073Y-66985481D01*
X186646798Y-66995202D01*
X186656519Y-67005927D01*
X186665142Y-67017553D01*
X186672583Y-67029969D01*
X186678772Y-67043054D01*
X186683649Y-67056683D01*
X186687166Y-67070724D01*
X186689290Y-67085042D01*
X186690000Y-67099500D01*
X186690000Y-67444500D01*
X186689290Y-67458958D01*
X186687166Y-67473276D01*
X186683649Y-67487317D01*
X186678772Y-67500946D01*
X186672583Y-67514031D01*
X186665142Y-67526447D01*
X186656519Y-67538073D01*
X186646798Y-67548798D01*
X186636073Y-67558519D01*
X186624447Y-67567142D01*
X186612031Y-67574583D01*
X186598946Y-67580772D01*
X186585317Y-67585649D01*
X186571276Y-67589166D01*
X186556958Y-67591290D01*
X186542500Y-67592000D01*
X186247500Y-67592000D01*
X186233042Y-67591290D01*
X186218724Y-67589166D01*
X186204683Y-67585649D01*
X186191054Y-67580772D01*
X186177969Y-67574583D01*
X186165553Y-67567142D01*
X186153927Y-67558519D01*
X186143202Y-67548798D01*
X186133481Y-67538073D01*
X186124858Y-67526447D01*
X186117417Y-67514031D01*
X186111228Y-67500946D01*
X186106351Y-67487317D01*
X186102834Y-67473276D01*
X186100710Y-67458958D01*
X186100000Y-67444500D01*
X186100000Y-67099500D01*
X186100710Y-67085042D01*
X186102834Y-67070724D01*
X186106351Y-67056683D01*
X186111228Y-67043054D01*
X186117417Y-67029969D01*
X186124858Y-67017553D01*
X186133481Y-67005927D01*
X186143202Y-66995202D01*
X186153927Y-66985481D01*
X186165553Y-66976858D01*
X186177969Y-66969417D01*
X186191054Y-66963228D01*
X186204683Y-66958351D01*
X186218724Y-66954834D01*
X186233042Y-66952710D01*
X186247500Y-66952000D01*
X186542500Y-66952000D01*
X186556958Y-66952710D01*
X186556958Y-66952710D01*
G37*
D12*
X186395000Y-67272000D03*
D11*
G36*
X185586958Y-66952710D02*
G01*
X185601276Y-66954834D01*
X185615317Y-66958351D01*
X185628946Y-66963228D01*
X185642031Y-66969417D01*
X185654447Y-66976858D01*
X185666073Y-66985481D01*
X185676798Y-66995202D01*
X185686519Y-67005927D01*
X185695142Y-67017553D01*
X185702583Y-67029969D01*
X185708772Y-67043054D01*
X185713649Y-67056683D01*
X185717166Y-67070724D01*
X185719290Y-67085042D01*
X185720000Y-67099500D01*
X185720000Y-67444500D01*
X185719290Y-67458958D01*
X185717166Y-67473276D01*
X185713649Y-67487317D01*
X185708772Y-67500946D01*
X185702583Y-67514031D01*
X185695142Y-67526447D01*
X185686519Y-67538073D01*
X185676798Y-67548798D01*
X185666073Y-67558519D01*
X185654447Y-67567142D01*
X185642031Y-67574583D01*
X185628946Y-67580772D01*
X185615317Y-67585649D01*
X185601276Y-67589166D01*
X185586958Y-67591290D01*
X185572500Y-67592000D01*
X185277500Y-67592000D01*
X185263042Y-67591290D01*
X185248724Y-67589166D01*
X185234683Y-67585649D01*
X185221054Y-67580772D01*
X185207969Y-67574583D01*
X185195553Y-67567142D01*
X185183927Y-67558519D01*
X185173202Y-67548798D01*
X185163481Y-67538073D01*
X185154858Y-67526447D01*
X185147417Y-67514031D01*
X185141228Y-67500946D01*
X185136351Y-67487317D01*
X185132834Y-67473276D01*
X185130710Y-67458958D01*
X185130000Y-67444500D01*
X185130000Y-67099500D01*
X185130710Y-67085042D01*
X185132834Y-67070724D01*
X185136351Y-67056683D01*
X185141228Y-67043054D01*
X185147417Y-67029969D01*
X185154858Y-67017553D01*
X185163481Y-67005927D01*
X185173202Y-66995202D01*
X185183927Y-66985481D01*
X185195553Y-66976858D01*
X185207969Y-66969417D01*
X185221054Y-66963228D01*
X185234683Y-66958351D01*
X185248724Y-66954834D01*
X185263042Y-66952710D01*
X185277500Y-66952000D01*
X185572500Y-66952000D01*
X185586958Y-66952710D01*
X185586958Y-66952710D01*
G37*
D12*
X185425000Y-67272000D03*
D11*
G36*
X187826958Y-67982710D02*
G01*
X187841276Y-67984834D01*
X187855317Y-67988351D01*
X187868946Y-67993228D01*
X187882031Y-67999417D01*
X187894447Y-68006858D01*
X187906073Y-68015481D01*
X187916798Y-68025202D01*
X187926519Y-68035927D01*
X187935142Y-68047553D01*
X187942583Y-68059969D01*
X187948772Y-68073054D01*
X187953649Y-68086683D01*
X187957166Y-68100724D01*
X187959290Y-68115042D01*
X187960000Y-68129500D01*
X187960000Y-68424500D01*
X187959290Y-68438958D01*
X187957166Y-68453276D01*
X187953649Y-68467317D01*
X187948772Y-68480946D01*
X187942583Y-68494031D01*
X187935142Y-68506447D01*
X187926519Y-68518073D01*
X187916798Y-68528798D01*
X187906073Y-68538519D01*
X187894447Y-68547142D01*
X187882031Y-68554583D01*
X187868946Y-68560772D01*
X187855317Y-68565649D01*
X187841276Y-68569166D01*
X187826958Y-68571290D01*
X187812500Y-68572000D01*
X187467500Y-68572000D01*
X187453042Y-68571290D01*
X187438724Y-68569166D01*
X187424683Y-68565649D01*
X187411054Y-68560772D01*
X187397969Y-68554583D01*
X187385553Y-68547142D01*
X187373927Y-68538519D01*
X187363202Y-68528798D01*
X187353481Y-68518073D01*
X187344858Y-68506447D01*
X187337417Y-68494031D01*
X187331228Y-68480946D01*
X187326351Y-68467317D01*
X187322834Y-68453276D01*
X187320710Y-68438958D01*
X187320000Y-68424500D01*
X187320000Y-68129500D01*
X187320710Y-68115042D01*
X187322834Y-68100724D01*
X187326351Y-68086683D01*
X187331228Y-68073054D01*
X187337417Y-68059969D01*
X187344858Y-68047553D01*
X187353481Y-68035927D01*
X187363202Y-68025202D01*
X187373927Y-68015481D01*
X187385553Y-68006858D01*
X187397969Y-67999417D01*
X187411054Y-67993228D01*
X187424683Y-67988351D01*
X187438724Y-67984834D01*
X187453042Y-67982710D01*
X187467500Y-67982000D01*
X187812500Y-67982000D01*
X187826958Y-67982710D01*
X187826958Y-67982710D01*
G37*
D12*
X187640000Y-68277000D03*
D11*
G36*
X187826958Y-67012710D02*
G01*
X187841276Y-67014834D01*
X187855317Y-67018351D01*
X187868946Y-67023228D01*
X187882031Y-67029417D01*
X187894447Y-67036858D01*
X187906073Y-67045481D01*
X187916798Y-67055202D01*
X187926519Y-67065927D01*
X187935142Y-67077553D01*
X187942583Y-67089969D01*
X187948772Y-67103054D01*
X187953649Y-67116683D01*
X187957166Y-67130724D01*
X187959290Y-67145042D01*
X187960000Y-67159500D01*
X187960000Y-67454500D01*
X187959290Y-67468958D01*
X187957166Y-67483276D01*
X187953649Y-67497317D01*
X187948772Y-67510946D01*
X187942583Y-67524031D01*
X187935142Y-67536447D01*
X187926519Y-67548073D01*
X187916798Y-67558798D01*
X187906073Y-67568519D01*
X187894447Y-67577142D01*
X187882031Y-67584583D01*
X187868946Y-67590772D01*
X187855317Y-67595649D01*
X187841276Y-67599166D01*
X187826958Y-67601290D01*
X187812500Y-67602000D01*
X187467500Y-67602000D01*
X187453042Y-67601290D01*
X187438724Y-67599166D01*
X187424683Y-67595649D01*
X187411054Y-67590772D01*
X187397969Y-67584583D01*
X187385553Y-67577142D01*
X187373927Y-67568519D01*
X187363202Y-67558798D01*
X187353481Y-67548073D01*
X187344858Y-67536447D01*
X187337417Y-67524031D01*
X187331228Y-67510946D01*
X187326351Y-67497317D01*
X187322834Y-67483276D01*
X187320710Y-67468958D01*
X187320000Y-67454500D01*
X187320000Y-67159500D01*
X187320710Y-67145042D01*
X187322834Y-67130724D01*
X187326351Y-67116683D01*
X187331228Y-67103054D01*
X187337417Y-67089969D01*
X187344858Y-67077553D01*
X187353481Y-67065927D01*
X187363202Y-67055202D01*
X187373927Y-67045481D01*
X187385553Y-67036858D01*
X187397969Y-67029417D01*
X187411054Y-67023228D01*
X187424683Y-67018351D01*
X187438724Y-67014834D01*
X187453042Y-67012710D01*
X187467500Y-67012000D01*
X187812500Y-67012000D01*
X187826958Y-67012710D01*
X187826958Y-67012710D01*
G37*
D12*
X187640000Y-67307000D03*
D11*
G36*
X179212691Y-63946053D02*
G01*
X179233926Y-63949203D01*
X179254750Y-63954419D01*
X179274962Y-63961651D01*
X179294368Y-63970830D01*
X179312781Y-63981866D01*
X179330024Y-63994654D01*
X179345930Y-64009070D01*
X179360346Y-64024976D01*
X179373134Y-64042219D01*
X179384170Y-64060632D01*
X179393349Y-64080038D01*
X179400581Y-64100250D01*
X179405797Y-64121074D01*
X179408947Y-64142309D01*
X179410000Y-64163750D01*
X179410000Y-64676250D01*
X179408947Y-64697691D01*
X179405797Y-64718926D01*
X179400581Y-64739750D01*
X179393349Y-64759962D01*
X179384170Y-64779368D01*
X179373134Y-64797781D01*
X179360346Y-64815024D01*
X179345930Y-64830930D01*
X179330024Y-64845346D01*
X179312781Y-64858134D01*
X179294368Y-64869170D01*
X179274962Y-64878349D01*
X179254750Y-64885581D01*
X179233926Y-64890797D01*
X179212691Y-64893947D01*
X179191250Y-64895000D01*
X178753750Y-64895000D01*
X178732309Y-64893947D01*
X178711074Y-64890797D01*
X178690250Y-64885581D01*
X178670038Y-64878349D01*
X178650632Y-64869170D01*
X178632219Y-64858134D01*
X178614976Y-64845346D01*
X178599070Y-64830930D01*
X178584654Y-64815024D01*
X178571866Y-64797781D01*
X178560830Y-64779368D01*
X178551651Y-64759962D01*
X178544419Y-64739750D01*
X178539203Y-64718926D01*
X178536053Y-64697691D01*
X178535000Y-64676250D01*
X178535000Y-64163750D01*
X178536053Y-64142309D01*
X178539203Y-64121074D01*
X178544419Y-64100250D01*
X178551651Y-64080038D01*
X178560830Y-64060632D01*
X178571866Y-64042219D01*
X178584654Y-64024976D01*
X178599070Y-64009070D01*
X178614976Y-63994654D01*
X178632219Y-63981866D01*
X178650632Y-63970830D01*
X178670038Y-63961651D01*
X178690250Y-63954419D01*
X178711074Y-63949203D01*
X178732309Y-63946053D01*
X178753750Y-63945000D01*
X179191250Y-63945000D01*
X179212691Y-63946053D01*
X179212691Y-63946053D01*
G37*
D13*
X178972500Y-64420000D03*
D11*
G36*
X180787691Y-63946053D02*
G01*
X180808926Y-63949203D01*
X180829750Y-63954419D01*
X180849962Y-63961651D01*
X180869368Y-63970830D01*
X180887781Y-63981866D01*
X180905024Y-63994654D01*
X180920930Y-64009070D01*
X180935346Y-64024976D01*
X180948134Y-64042219D01*
X180959170Y-64060632D01*
X180968349Y-64080038D01*
X180975581Y-64100250D01*
X180980797Y-64121074D01*
X180983947Y-64142309D01*
X180985000Y-64163750D01*
X180985000Y-64676250D01*
X180983947Y-64697691D01*
X180980797Y-64718926D01*
X180975581Y-64739750D01*
X180968349Y-64759962D01*
X180959170Y-64779368D01*
X180948134Y-64797781D01*
X180935346Y-64815024D01*
X180920930Y-64830930D01*
X180905024Y-64845346D01*
X180887781Y-64858134D01*
X180869368Y-64869170D01*
X180849962Y-64878349D01*
X180829750Y-64885581D01*
X180808926Y-64890797D01*
X180787691Y-64893947D01*
X180766250Y-64895000D01*
X180328750Y-64895000D01*
X180307309Y-64893947D01*
X180286074Y-64890797D01*
X180265250Y-64885581D01*
X180245038Y-64878349D01*
X180225632Y-64869170D01*
X180207219Y-64858134D01*
X180189976Y-64845346D01*
X180174070Y-64830930D01*
X180159654Y-64815024D01*
X180146866Y-64797781D01*
X180135830Y-64779368D01*
X180126651Y-64759962D01*
X180119419Y-64739750D01*
X180114203Y-64718926D01*
X180111053Y-64697691D01*
X180110000Y-64676250D01*
X180110000Y-64163750D01*
X180111053Y-64142309D01*
X180114203Y-64121074D01*
X180119419Y-64100250D01*
X180126651Y-64080038D01*
X180135830Y-64060632D01*
X180146866Y-64042219D01*
X180159654Y-64024976D01*
X180174070Y-64009070D01*
X180189976Y-63994654D01*
X180207219Y-63981866D01*
X180225632Y-63970830D01*
X180245038Y-63961651D01*
X180265250Y-63954419D01*
X180286074Y-63949203D01*
X180307309Y-63946053D01*
X180328750Y-63945000D01*
X180766250Y-63945000D01*
X180787691Y-63946053D01*
X180787691Y-63946053D01*
G37*
D13*
X180547500Y-64420000D03*
D11*
G36*
X184146958Y-67987710D02*
G01*
X184161276Y-67989834D01*
X184175317Y-67993351D01*
X184188946Y-67998228D01*
X184202031Y-68004417D01*
X184214447Y-68011858D01*
X184226073Y-68020481D01*
X184236798Y-68030202D01*
X184246519Y-68040927D01*
X184255142Y-68052553D01*
X184262583Y-68064969D01*
X184268772Y-68078054D01*
X184273649Y-68091683D01*
X184277166Y-68105724D01*
X184279290Y-68120042D01*
X184280000Y-68134500D01*
X184280000Y-68429500D01*
X184279290Y-68443958D01*
X184277166Y-68458276D01*
X184273649Y-68472317D01*
X184268772Y-68485946D01*
X184262583Y-68499031D01*
X184255142Y-68511447D01*
X184246519Y-68523073D01*
X184236798Y-68533798D01*
X184226073Y-68543519D01*
X184214447Y-68552142D01*
X184202031Y-68559583D01*
X184188946Y-68565772D01*
X184175317Y-68570649D01*
X184161276Y-68574166D01*
X184146958Y-68576290D01*
X184132500Y-68577000D01*
X183787500Y-68577000D01*
X183773042Y-68576290D01*
X183758724Y-68574166D01*
X183744683Y-68570649D01*
X183731054Y-68565772D01*
X183717969Y-68559583D01*
X183705553Y-68552142D01*
X183693927Y-68543519D01*
X183683202Y-68533798D01*
X183673481Y-68523073D01*
X183664858Y-68511447D01*
X183657417Y-68499031D01*
X183651228Y-68485946D01*
X183646351Y-68472317D01*
X183642834Y-68458276D01*
X183640710Y-68443958D01*
X183640000Y-68429500D01*
X183640000Y-68134500D01*
X183640710Y-68120042D01*
X183642834Y-68105724D01*
X183646351Y-68091683D01*
X183651228Y-68078054D01*
X183657417Y-68064969D01*
X183664858Y-68052553D01*
X183673481Y-68040927D01*
X183683202Y-68030202D01*
X183693927Y-68020481D01*
X183705553Y-68011858D01*
X183717969Y-68004417D01*
X183731054Y-67998228D01*
X183744683Y-67993351D01*
X183758724Y-67989834D01*
X183773042Y-67987710D01*
X183787500Y-67987000D01*
X184132500Y-67987000D01*
X184146958Y-67987710D01*
X184146958Y-67987710D01*
G37*
D12*
X183960000Y-68282000D03*
D11*
G36*
X184146958Y-67017710D02*
G01*
X184161276Y-67019834D01*
X184175317Y-67023351D01*
X184188946Y-67028228D01*
X184202031Y-67034417D01*
X184214447Y-67041858D01*
X184226073Y-67050481D01*
X184236798Y-67060202D01*
X184246519Y-67070927D01*
X184255142Y-67082553D01*
X184262583Y-67094969D01*
X184268772Y-67108054D01*
X184273649Y-67121683D01*
X184277166Y-67135724D01*
X184279290Y-67150042D01*
X184280000Y-67164500D01*
X184280000Y-67459500D01*
X184279290Y-67473958D01*
X184277166Y-67488276D01*
X184273649Y-67502317D01*
X184268772Y-67515946D01*
X184262583Y-67529031D01*
X184255142Y-67541447D01*
X184246519Y-67553073D01*
X184236798Y-67563798D01*
X184226073Y-67573519D01*
X184214447Y-67582142D01*
X184202031Y-67589583D01*
X184188946Y-67595772D01*
X184175317Y-67600649D01*
X184161276Y-67604166D01*
X184146958Y-67606290D01*
X184132500Y-67607000D01*
X183787500Y-67607000D01*
X183773042Y-67606290D01*
X183758724Y-67604166D01*
X183744683Y-67600649D01*
X183731054Y-67595772D01*
X183717969Y-67589583D01*
X183705553Y-67582142D01*
X183693927Y-67573519D01*
X183683202Y-67563798D01*
X183673481Y-67553073D01*
X183664858Y-67541447D01*
X183657417Y-67529031D01*
X183651228Y-67515946D01*
X183646351Y-67502317D01*
X183642834Y-67488276D01*
X183640710Y-67473958D01*
X183640000Y-67459500D01*
X183640000Y-67164500D01*
X183640710Y-67150042D01*
X183642834Y-67135724D01*
X183646351Y-67121683D01*
X183651228Y-67108054D01*
X183657417Y-67094969D01*
X183664858Y-67082553D01*
X183673481Y-67070927D01*
X183683202Y-67060202D01*
X183693927Y-67050481D01*
X183705553Y-67041858D01*
X183717969Y-67034417D01*
X183731054Y-67028228D01*
X183744683Y-67023351D01*
X183758724Y-67019834D01*
X183773042Y-67017710D01*
X183787500Y-67017000D01*
X184132500Y-67017000D01*
X184146958Y-67017710D01*
X184146958Y-67017710D01*
G37*
D12*
X183960000Y-67312000D03*
D14*
X169170000Y-67230000D03*
D15*
X183725000Y-80270000D03*
X183075000Y-80270000D03*
X182425000Y-80270000D03*
X181775000Y-80270000D03*
X181125000Y-80270000D03*
X180475000Y-80270000D03*
X179825000Y-80270000D03*
X179175000Y-80270000D03*
X178525000Y-80270000D03*
X177875000Y-80270000D03*
X177875000Y-74370000D03*
X178525000Y-74370000D03*
X179175000Y-74370000D03*
X179825000Y-74370000D03*
X180475000Y-74370000D03*
X181125000Y-74370000D03*
X181775000Y-74370000D03*
X182425000Y-74370000D03*
X183075000Y-74370000D03*
X183725000Y-74370000D03*
D16*
X180960000Y-67680000D03*
X180960000Y-66730000D03*
X180960000Y-68630000D03*
X178760000Y-68630000D03*
X178760000Y-67680000D03*
X178760000Y-66730000D03*
D11*
G36*
X180391958Y-81690710D02*
G01*
X180406276Y-81692834D01*
X180420317Y-81696351D01*
X180433946Y-81701228D01*
X180447031Y-81707417D01*
X180459447Y-81714858D01*
X180471073Y-81723481D01*
X180481798Y-81733202D01*
X180491519Y-81743927D01*
X180500142Y-81755553D01*
X180507583Y-81767969D01*
X180513772Y-81781054D01*
X180518649Y-81794683D01*
X180522166Y-81808724D01*
X180524290Y-81823042D01*
X180525000Y-81837500D01*
X180525000Y-82182500D01*
X180524290Y-82196958D01*
X180522166Y-82211276D01*
X180518649Y-82225317D01*
X180513772Y-82238946D01*
X180507583Y-82252031D01*
X180500142Y-82264447D01*
X180491519Y-82276073D01*
X180481798Y-82286798D01*
X180471073Y-82296519D01*
X180459447Y-82305142D01*
X180447031Y-82312583D01*
X180433946Y-82318772D01*
X180420317Y-82323649D01*
X180406276Y-82327166D01*
X180391958Y-82329290D01*
X180377500Y-82330000D01*
X180082500Y-82330000D01*
X180068042Y-82329290D01*
X180053724Y-82327166D01*
X180039683Y-82323649D01*
X180026054Y-82318772D01*
X180012969Y-82312583D01*
X180000553Y-82305142D01*
X179988927Y-82296519D01*
X179978202Y-82286798D01*
X179968481Y-82276073D01*
X179959858Y-82264447D01*
X179952417Y-82252031D01*
X179946228Y-82238946D01*
X179941351Y-82225317D01*
X179937834Y-82211276D01*
X179935710Y-82196958D01*
X179935000Y-82182500D01*
X179935000Y-81837500D01*
X179935710Y-81823042D01*
X179937834Y-81808724D01*
X179941351Y-81794683D01*
X179946228Y-81781054D01*
X179952417Y-81767969D01*
X179959858Y-81755553D01*
X179968481Y-81743927D01*
X179978202Y-81733202D01*
X179988927Y-81723481D01*
X180000553Y-81714858D01*
X180012969Y-81707417D01*
X180026054Y-81701228D01*
X180039683Y-81696351D01*
X180053724Y-81692834D01*
X180068042Y-81690710D01*
X180082500Y-81690000D01*
X180377500Y-81690000D01*
X180391958Y-81690710D01*
X180391958Y-81690710D01*
G37*
D12*
X180230000Y-82010000D03*
D11*
G36*
X181361958Y-81690710D02*
G01*
X181376276Y-81692834D01*
X181390317Y-81696351D01*
X181403946Y-81701228D01*
X181417031Y-81707417D01*
X181429447Y-81714858D01*
X181441073Y-81723481D01*
X181451798Y-81733202D01*
X181461519Y-81743927D01*
X181470142Y-81755553D01*
X181477583Y-81767969D01*
X181483772Y-81781054D01*
X181488649Y-81794683D01*
X181492166Y-81808724D01*
X181494290Y-81823042D01*
X181495000Y-81837500D01*
X181495000Y-82182500D01*
X181494290Y-82196958D01*
X181492166Y-82211276D01*
X181488649Y-82225317D01*
X181483772Y-82238946D01*
X181477583Y-82252031D01*
X181470142Y-82264447D01*
X181461519Y-82276073D01*
X181451798Y-82286798D01*
X181441073Y-82296519D01*
X181429447Y-82305142D01*
X181417031Y-82312583D01*
X181403946Y-82318772D01*
X181390317Y-82323649D01*
X181376276Y-82327166D01*
X181361958Y-82329290D01*
X181347500Y-82330000D01*
X181052500Y-82330000D01*
X181038042Y-82329290D01*
X181023724Y-82327166D01*
X181009683Y-82323649D01*
X180996054Y-82318772D01*
X180982969Y-82312583D01*
X180970553Y-82305142D01*
X180958927Y-82296519D01*
X180948202Y-82286798D01*
X180938481Y-82276073D01*
X180929858Y-82264447D01*
X180922417Y-82252031D01*
X180916228Y-82238946D01*
X180911351Y-82225317D01*
X180907834Y-82211276D01*
X180905710Y-82196958D01*
X180905000Y-82182500D01*
X180905000Y-81837500D01*
X180905710Y-81823042D01*
X180907834Y-81808724D01*
X180911351Y-81794683D01*
X180916228Y-81781054D01*
X180922417Y-81767969D01*
X180929858Y-81755553D01*
X180938481Y-81743927D01*
X180948202Y-81733202D01*
X180958927Y-81723481D01*
X180970553Y-81714858D01*
X180982969Y-81707417D01*
X180996054Y-81701228D01*
X181009683Y-81696351D01*
X181023724Y-81692834D01*
X181038042Y-81690710D01*
X181052500Y-81690000D01*
X181347500Y-81690000D01*
X181361958Y-81690710D01*
X181361958Y-81690710D01*
G37*
D12*
X181200000Y-82010000D03*
M02*
